<svg width="37" height="38" viewBox="0 0 37 38" fill="none" xmlns="http://www.w3.org/2000/svg">
<path d="M12.96 21.288C17.088 21.576 20.16 22.328 22.176 23.544C24.224 24.728 25.248 26.488 25.248 28.824C25.248 30.456 24.64 31.944 23.424 33.288C22.208 34.664 20.592 35.736 18.576 36.504C16.592 37.304 14.464 37.704 12.192 37.704C8.384 37.704 5.536 37.016 3.648 35.64C1.76 34.296 0.816 32.488 0.816 30.216C0.816 29.032 1.2 27.96 1.968 27C2.768 26.008 3.904 25.272 5.376 24.792C4.736 24.344 4.304 23.816 4.08 23.208C3.888 22.6 3.792 21.848 3.792 20.952C3.792 20.376 4.016 19.8 4.464 19.224C4.912 18.616 5.536 18.168 6.336 17.88C4.832 17.08 3.648 15.976 2.784 14.568C1.952 13.16 1.536 11.64 1.536 10.008C1.536 8.344 1.936 6.856 2.736 5.544C3.568 4.2 4.768 3.144 6.336 2.376C7.936 1.576 9.872 1.176 12.144 1.176H12.192C13.344 1.176 14.336 1.256 15.168 1.416C18.176 1.416 20.24 1.384 21.36 1.32C22.512 1.224 23.616 1.096 24.672 0.935998C24.992 0.935998 25.232 1.16 25.392 1.608C25.584 2.024 25.68 2.472 25.68 2.952C25.68 4.392 25.056 5.112 23.808 5.112C23.52 5.112 22.64 4.824 21.168 4.248C20.912 4.12 20.528 3.96 20.016 3.768C21.072 4.632 21.888 5.624 22.464 6.744C23.04 7.832 23.328 8.888 23.328 9.912C23.328 12.888 22.304 15.176 20.256 16.776C18.24 18.344 15.408 19.128 11.76 19.128C10.864 19.128 9.856 19.016 8.736 18.792V18.936C8.736 19.704 9.04 20.264 9.648 20.616C10.256 20.936 11.36 21.16 12.96 21.288ZM12.576 4.344C11.552 4.344 10.816 4.872 10.368 5.928C9.952 6.984 9.744 8.52 9.744 10.536C9.744 14.152 10.688 15.96 12.576 15.96C13.6 15.96 14.336 15.416 14.784 14.328C15.232 13.24 15.456 11.576 15.456 9.336C15.456 7.576 15.216 6.312 14.736 5.544C14.256 4.744 13.536 4.344 12.576 4.344ZM13.776 33.768C15.248 33.768 16.336 33.416 17.04 32.712C17.744 32.008 18.096 31.128 18.096 30.072C18.096 29.112 17.504 28.392 16.32 27.912C15.168 27.464 13.344 27.032 10.848 26.616L8.688 26.184C8.272 26.888 8.064 27.816 8.064 28.968C8.064 30.44 8.512 31.608 9.408 32.472C10.304 33.336 11.76 33.768 13.776 33.768ZM36.0255 22.872C36.0255 24.28 35.5775 25.432 34.6815 26.328C33.7855 27.192 32.6175 27.624 31.1775 27.624C29.7055 27.624 28.5215 27.192 27.6255 26.328C26.7295 25.432 26.2815 24.28 26.2815 22.872C26.2815 21.432 26.7295 20.28 27.6255 19.416C28.5215 18.552 29.7055 18.12 31.1775 18.12C32.6175 18.12 33.7855 18.552 34.6815 19.416C35.5775 20.28 36.0255 21.432 36.0255 22.872Z" fill="#060300"/>
</svg>
