<svg width="1165" height="1175" viewBox="0 0 1165 1175" fill="none" xmlns="http://www.w3.org/2000/svg">
<rect width="1165" height="1175" fill="#F2EFE9"/>
<g clip-path="url(#clip0_2_4)">
<path d="M285.64 1028.28C307.66 1023.61 367.86 1009.31 354.49 968.56C339.85 923.9 286.85 925.17 260.61 932.23C234.37 939.29 188.39 971.13 202.4 1006.59C217.55 1044.88 264.74 1032.7 285.64 1028.28Z" fill="#F2EFE9" stroke="#231F20" stroke-width="3" stroke-miterlimit="10" stroke-linecap="round" stroke-linejoin="round"/>
<path d="M325.29 1022.98C342.157 1022.98 355.83 1009.31 355.83 992.44C355.83 975.573 342.157 961.9 325.29 961.9C308.423 961.9 294.75 975.573 294.75 992.44C294.75 1009.31 308.423 1022.98 325.29 1022.98Z" fill="#F2EFE9" stroke="#231F20" stroke-width="3" stroke-miterlimit="10" stroke-linecap="round" stroke-linejoin="round"/>
<path d="M299 976.9C299 976.9 294.91 954.77 299 953.25C303.09 951.74 314.42 963.9 314.42 963.9C314.42 963.9 309.08 965.77 305.8 968.93C302.52 972.09 299 976.9 299 976.9Z" fill="#F2EFE9" stroke="#231F20" stroke-width="3" stroke-miterlimit="10" stroke-linecap="round" stroke-linejoin="round"/>
<path d="M346.93 970.9C346.93 970.9 371.64 967.39 372.31 973.11C372.98 978.83 355.48 987.84 355.48 987.84C355.48 987.84 354.08 980.51 351.58 976.9C349.08 973.29 346.93 970.9 346.93 970.9Z" fill="#F2EFE9" stroke="#231F20" stroke-width="3" stroke-miterlimit="10" stroke-linecap="round" stroke-linejoin="round"/>
<path d="M215.99 959.52C215.99 959.52 188.05 985.55 195.2 1016.67C202.83 1049.87 264.43 1072.06 290.89 1038.88C312.09 1012.3 276.42 997.5 265.66 1014.32C250.56 1037.92 185.71 1039.72 215.99 959.52Z" fill="#231F20" stroke="#231F20" stroke-width="3" stroke-miterlimit="10" stroke-linecap="round" stroke-linejoin="round"/>
<path d="M305.79 993.12C305.79 993.12 287.02 990.09 275.58 994.3" stroke="#231F20" stroke-width="3" stroke-miterlimit="10" stroke-linecap="round" stroke-linejoin="round"/>
<path d="M343.21 1004.4C343.21 1004.4 359.18 1013.2 362.05 1016.68" stroke="#231F20" stroke-width="3" stroke-miterlimit="10" stroke-linecap="round" stroke-linejoin="round"/>
<path d="M305.79 998.51C305.79 998.51 289.22 998.17 277.94 1003.56" stroke="#231F20" stroke-width="3" stroke-miterlimit="10" stroke-linecap="round" stroke-linejoin="round"/>
<path d="M339.93 1010.54C339.93 1010.54 355.32 1022.9 358.1 1032.24" stroke="#231F20" stroke-width="3" stroke-miterlimit="10" stroke-linecap="round" stroke-linejoin="round"/>
<path d="M343.21 676.18L856.47 671.14" stroke="#231F20" stroke-width="3" stroke-miterlimit="10" stroke-linecap="round" stroke-linejoin="round"/>
<path d="M707.09 953.12L823.77 951.73L814.33 986.92L707.09 987.18V953.12Z" fill="#F2EFE9" stroke="#231F20" stroke-width="3" stroke-miterlimit="10" stroke-linecap="round" stroke-linejoin="round"/>
<path d="M429.89 521.24C429.89 521.24 394.18 571.21 402.26 611.59C410.33 651.96 456.73 678.72 528.43 676.19C522.37 736.75 533.32 954.81 533.32 954.81L707.08 953.13L808.02 951.73V658.52L667.26 549.91C667.26 549.91 600.14 522.97 429.89 521.24Z" fill="black" stroke="black" stroke-width="3" stroke-miterlimit="10" stroke-linecap="round" stroke-linejoin="round"/>
<path d="M610.19 574.24L700.02 656L707.09 953.12" stroke="#231F20" stroke-width="3" stroke-miterlimit="10" stroke-linecap="round" stroke-linejoin="round"/>
<path d="M519.35 954.92L730.64 953.12L722.57 987.12L530.13 987.84L519.35 954.92Z" fill="#F2EFE9" stroke="#231F20" stroke-width="3" stroke-miterlimit="10" stroke-linecap="round" stroke-linejoin="round"/>
<path d="M797.93 987.18V1010.54L859.39 1054.09L707.09 1055.42V987.18H797.93Z" fill="#F2EFE9" stroke="#231F20" stroke-width="3" stroke-miterlimit="10" stroke-linecap="round" stroke-linejoin="round"/>
<path d="M534.49 987.84L707.09 987.18V1012.81L768.17 1054.69L536.04 1057.45L534.49 987.84Z" fill="#F2EFE9" stroke="#231F20" stroke-width="3" stroke-miterlimit="10" stroke-linecap="round" stroke-linejoin="round"/>
<path d="M565.89 485.98L570.32 435.96L608.68 407.22C608.68 407.22 558.72 337.55 536.51 334.02C523.89 343.1 513.8 328.47 513.8 328.47C513.8 328.47 445.86 330.63 427.7 395.23C467.07 407.85 495.64 415.52 495.64 415.52L503.71 384.49L486.05 469.78L565.89 485.98Z" fill="#F2EFE9"/>
<path d="M570.32 435.96L565.89 485.98L486.05 469.78L503.71 384.49L495.64 415.52C495.64 415.52 467.07 407.85 427.7 395.23C445.86 330.63 513.8 328.47 513.8 328.47C513.8 328.47 523.89 343.1 536.51 334.02C558.72 337.55 608.68 407.22 608.68 407.22L570.32 435.96ZM570.32 435.96L566.79 383.47" stroke="#231F20" stroke-width="3" stroke-miterlimit="10" stroke-linecap="round" stroke-linejoin="round"/>
<path d="M427.69 395.22C427.69 395.22 403.6 504.59 408.32 512.67C413.04 520.75 544.29 547.33 578.61 548.56C612.93 549.79 602.76 498.86 592.35 492.98C581.94 487.1 486.05 469.77 486.05 469.77L495.64 415.51L427.69 395.22Z" fill="#F2EFE9" stroke="#231F20" stroke-width="3" stroke-miterlimit="10" stroke-linecap="round" stroke-linejoin="round"/>
<path d="M571.83 435.2L602.26 412.09L625.83 452.11L602.26 493.49L565.93 485.63L571.83 435.2Z" fill="#F2EFE9" stroke="#231F20" stroke-width="3" stroke-miterlimit="10" stroke-linecap="round" stroke-linejoin="round"/>
<path d="M573.1 334.26C595.17 326.81 586.43 284.95 574.61 268.15C553.67 238.37 502.19 243.42 488.81 283.8C485.89 292.6 467.95 296.46 474.93 310.55C479.81 320.39 499.41 315.27 499.41 315.27C499.41 315.27 559.89 338.72 573.1 334.26Z" fill="#231F20" stroke="#231F20" stroke-width="3" stroke-miterlimit="10" stroke-linecap="round" stroke-linejoin="round"/>
<path d="M513.8 328.46L519.1 313.32C519.1 313.32 513.55 305.75 513.8 301.46C514.05 297.17 505.47 300.2 507.74 291.37C510.01 282.54 521.11 292.38 526.67 294.65C532.23 296.92 542.51 291.51 547.87 291.12C551.52 290.85 555.22 294.38 556.27 296.72C558.39 301.47 555.44 308.28 549.89 311.56C544.34 314.84 536.01 315.35 536.01 315.35L535.18 334.9C535.18 334.9 534.01 339.03 523.15 336.02C512.28 333 513.8 328.46 513.8 328.46Z" fill="#F2EFE9" stroke="#231F20" stroke-width="3" stroke-miterlimit="10" stroke-linecap="round" stroke-linejoin="round"/>
<path d="M89.61 550.85H1094.94" stroke="black" stroke-width="3" stroke-miterlimit="10" stroke-linecap="round" stroke-linejoin="round"/>
<path d="M202.41 1091.54L343.21 550.85" stroke="#231F20" stroke-width="3" stroke-miterlimit="10"/>
<path d="M217.55 550.85L402.26 1114.25" stroke="#231F20" stroke-width="3" stroke-miterlimit="10"/>
<path d="M845.88 550.85L1033.62 1114.25" stroke="black" stroke-width="3" stroke-miterlimit="10"/>
<path d="M833.76 1083.97L974.57 550.85" stroke="black" stroke-width="3" stroke-miterlimit="10"/>
<path d="M146.22 483.9C146.22 483.9 127.38 436.63 100.8 424.52" stroke="#231F20" stroke-width="3" stroke-miterlimit="10" stroke-linecap="round" stroke-linejoin="round"/>
<path d="M100.8 424.52C100.8 424.52 80.53 392.3 72.45 401.64C61.42 414.4 100.8 424.52 100.8 424.52Z" fill="#AEAFAE" stroke="#231F20" stroke-width="3" stroke-miterlimit="10" stroke-linecap="round" stroke-linejoin="round"/>
<path d="M127.03 448.88C119.81 433.26 98.82 462.96 98.82 462.96C98.82 462.96 130.96 457.38 127.03 448.88Z" fill="#AEAFAE" stroke="#231F20" stroke-width="3" stroke-miterlimit="10" stroke-linecap="round" stroke-linejoin="round"/>
<path d="M160.77 365.55C164.56 413.24 175.15 484.79 175.15 484.79Z" fill="#231F20"/>
<path d="M160.77 365.55C164.56 413.24 175.15 484.79 175.15 484.79" stroke="#231F20" stroke-width="3" stroke-miterlimit="10" stroke-linecap="round" stroke-linejoin="round"/>
<path d="M158.43 320.29C164.47 319.69 182.34 372.91 160.2 370.35C140.58 368.08 158.43 320.29 158.43 320.29Z" fill="#AEAFAE" stroke="#231F20" stroke-width="3" stroke-miterlimit="10" stroke-linecap="round" stroke-linejoin="round"/>
<path d="M163.36 392.93C163.36 392.93 152.95 375.4 135.79 374.05C118.63 372.7 115.94 374.05 115.94 374.05" stroke="#231F20" stroke-width="3" stroke-miterlimit="10" stroke-linecap="round" stroke-linejoin="round"/>
<path d="M115.26 372.2C112.18 352.03 82.12 376.24 82.12 376.24C82.12 376.24 117.37 385.99 115.26 372.2Z" fill="#AEAFAE" stroke="#231F20" stroke-width="3" stroke-miterlimit="10" stroke-linecap="round" stroke-linejoin="round"/>
<path d="M165.99 416.11C165.99 416.11 174.29 399.39 195.17 387.84C210.98 379.09 219.9 376.5 219.9 376.5" stroke="#231F20" stroke-width="3" stroke-miterlimit="10" stroke-linecap="round" stroke-linejoin="round"/>
<path d="M220.91 376.5C214.34 352.36 270.03 367.45 270.03 367.45C270.03 367.45 225.58 393.66 220.91 376.5Z" fill="#AEAFAE" stroke="#231F20" stroke-width="3" stroke-miterlimit="10" stroke-linecap="round" stroke-linejoin="round"/>
<path d="M206.19 484.79C206.19 484.79 205.18 453.94 216.28 445.2" stroke="#231F20" stroke-width="3" stroke-miterlimit="10" stroke-linecap="round" stroke-linejoin="round"/>
<path d="M255.02 416.9C255.02 416.9 201.56 427.67 215.4 445.2C224.74 457.03 255.02 416.9 255.02 416.9Z" fill="#AEAFAE" stroke="#231F20" stroke-width="3" stroke-miterlimit="10" stroke-linecap="round" stroke-linejoin="round"/>
<path d="M192.95 431.04C205.44 425.18 208.09 461.57 208.09 461.57C208.09 461.57 180.72 436.78 192.95 431.04Z" fill="#AEAFAE" stroke="#231F20" stroke-width="3" stroke-miterlimit="10" stroke-linecap="round" stroke-linejoin="round"/>
<path d="M223.12 483.9H132.62V550.85H223.12V483.9Z" fill="#565656" stroke="#231F20" stroke-width="3" stroke-miterlimit="10" stroke-linecap="round" stroke-linejoin="round"/>
<path d="M565.93 550.91L658.64 362.92H908.29L826.21 550.91H565.93Z" fill="#DADADA" stroke="#231F20" stroke-width="3" stroke-miterlimit="10" stroke-linecap="round" stroke-linejoin="round"/>
<path d="M760.08 447.87C760.08 447.87 750.49 445.26 743.68 450.06C740.73 452.14 731.42 459.4 736.29 465.45C741.16 471.5 750.24 466.21 753.78 460.91C757.32 455.61 760.08 447.87 760.08 447.87Z" fill="#F2EFE9" stroke="#231F20" stroke-width="3" stroke-miterlimit="10" stroke-linecap="round" stroke-linejoin="round"/>
<path d="M1020.66 531.84L1053.64 277.15L904.17 195.73" stroke="#231F20" stroke-width="3" stroke-miterlimit="10" stroke-linecap="round" stroke-linejoin="round"/>
<path d="M904.17 195.73L831.91 226.34L905.6 272.1L904.17 195.73Z" fill="#DADADA" stroke="#231F20" stroke-width="3" stroke-miterlimit="10" stroke-linecap="round" stroke-linejoin="round"/>
<path d="M867.79 271.26C878.344 271.26 886.9 262.704 886.9 252.15C886.9 241.596 878.344 233.04 867.79 233.04C857.236 233.04 848.68 241.596 848.68 252.15C848.68 262.704 857.236 271.26 867.79 271.26Z" fill="#F2EFE9" stroke="#231F20" stroke-width="3" stroke-miterlimit="10" stroke-linecap="round" stroke-linejoin="round"/>
<path d="M1068.54 529.23H971.49V549.86H1068.54V529.23Z" fill="#DADADA" stroke="#231F20" stroke-width="3" stroke-miterlimit="10" stroke-linecap="round" stroke-linejoin="round"/>
<path d="M746.43 235.3L736.04 228.23C736.04 228.23 710.68 258.26 718.5 264.44C727.06 271.21 746.43 235.3 746.43 235.3Z" fill="#F2EFE9" stroke="#231F20" stroke-width="3" stroke-miterlimit="10" stroke-linecap="round" stroke-linejoin="round"/>
<path d="M753.98 235.46C766.97 235.46 777.5 224.93 777.5 211.94C777.5 198.95 766.97 188.42 753.98 188.42C740.99 188.42 730.46 198.95 730.46 211.94C730.46 224.93 740.99 235.46 753.98 235.46Z" fill="#CFCFCF" stroke="#020202" stroke-width="3" stroke-miterlimit="10" stroke-linecap="round" stroke-linejoin="round"/>
<path d="M753.98 227.01C761.679 227.01 767.92 220.769 767.92 213.07C767.92 205.371 761.679 199.13 753.98 199.13C746.281 199.13 740.04 205.371 740.04 213.07C740.04 220.769 746.281 227.01 753.98 227.01Z" fill="#F2EFE9" stroke="#231F20" stroke-width="3" stroke-miterlimit="10" stroke-linecap="round" stroke-linejoin="round"/>
<path d="M721.6 248.19C721.6 248.19 721.41 252.5 724.63 255.91C726.46 257.84 730.22 258.9 730.22 258.9C730.22 258.9 722.99 268.4 718.45 264.24C713.9 260.07 721.6 248.19 721.6 248.19Z" fill="#CFCFCF" stroke="#020202" stroke-width="3" stroke-miterlimit="10" stroke-linecap="round" stroke-linejoin="round"/>
<path d="M513.63 148.79C530.447 148.79 544.08 135.157 544.08 118.34C544.08 101.523 530.447 87.89 513.63 87.89C496.813 87.89 483.18 101.523 483.18 118.34C483.18 135.157 496.813 148.79 513.63 148.79Z" fill="#CFCFCF" stroke="#020202" stroke-width="3" stroke-miterlimit="10" stroke-linecap="round" stroke-linejoin="round"/>
<path d="M537.19 99.06C549.58 100.96 558.43 106.27 559.77 113.82C561.93 125.99 543.52 137.21 519.01 141.56C494.49 145.91 473.15 141.73 470.99 129.56C469.79 122.77 474.9 115.59 483.92 109.83" stroke="#231F20" stroke-width="3" stroke-miterlimit="10" stroke-linecap="round" stroke-linejoin="round"/>
<path d="M558.04 76.28C561.569 76.28 564.43 73.4191 564.43 69.89C564.43 66.3609 561.569 63.5 558.04 63.5C554.511 63.5 551.65 66.3609 551.65 69.89C551.65 73.4191 554.511 76.28 558.04 76.28Z" fill="#F2EFE9" stroke="#231F20" stroke-width="3" stroke-miterlimit="10" stroke-linecap="round" stroke-linejoin="round"/>
<path d="M458.54 159.31C462.069 159.31 464.93 156.449 464.93 152.92C464.93 149.391 462.069 146.53 458.54 146.53C455.011 146.53 452.15 149.391 452.15 152.92C452.15 156.449 455.011 159.31 458.54 159.31Z" fill="#F2EFE9" stroke="#231F20" stroke-width="3" stroke-miterlimit="10" stroke-linecap="round" stroke-linejoin="round"/>
<path d="M277.43 259.65C291.546 259.65 302.99 248.206 302.99 234.09C302.99 219.974 291.546 208.53 277.43 208.53C263.314 208.53 251.87 219.974 251.87 234.09C251.87 248.206 263.314 259.65 277.43 259.65Z" fill="#F2EFE9" stroke="#231F20" stroke-width="3" stroke-miterlimit="10" stroke-linecap="round" stroke-linejoin="round"/>
<path d="M284.5 243L270.71 239.8" stroke="#231F20" stroke-width="3" stroke-miterlimit="10" stroke-linecap="round" stroke-linejoin="round"/>
<path d="M290.89 235.76L282.65 226.01" stroke="#231F20" stroke-width="3" stroke-miterlimit="10" stroke-linecap="round" stroke-linejoin="round"/>
<path d="M265.49 235.76C265.49 235.76 262.97 231.72 264.65 229.2C266.33 226.68 270.71 229.2 270.71 229.2C270.71 229.2 270.71 222.47 273.07 220.62C274.94 219.15 279.46 222.13 279.46 222.13" stroke="#231F20" stroke-width="3" stroke-miterlimit="10" stroke-linecap="round" stroke-linejoin="round"/>
<path d="M303.85 237.78C303.85 237.78 309.74 239.8 309.4 243C309.06 246.2 294.93 263.02 291.74 263.36C288.55 263.7 285.82 258.25 285.82 258.25C285.82 258.25 294.58 254.78 297.62 249.78C300.66 244.78 303.85 237.78 303.85 237.78Z" fill="#F2EFE9" stroke="#231F20" stroke-width="3" stroke-miterlimit="10" stroke-linecap="round" stroke-linejoin="round"/>
<path d="M308.47 246.76C308.47 246.76 313.94 247.03 313.43 250.23C312.92 253.43 301.28 266.91 297.61 265.12C294.86 263.77 294.61 261.66 296.2 260.08C298.82 257.5 308.47 246.76 308.47 246.76Z" fill="#F2EFE9" stroke="#231F20" stroke-width="3" stroke-miterlimit="10" stroke-linecap="round" stroke-linejoin="round"/>
<path d="M312.84 252.97L321.09 260.41C321.09 260.41 315.18 268.57 313.47 268.4C311.76 268.23 303.97 262.86 303.97 262.86L312.84 252.97Z" fill="#F2EFE9" stroke="#231F20" stroke-width="3" stroke-miterlimit="10" stroke-linecap="round" stroke-linejoin="round"/>
<path d="M340.94 208.53C340.94 208.53 365.16 176.8 408.57 150.06Z" fill="white"/>
<path d="M340.94 208.53C340.94 208.53 365.16 176.8 408.57 150.06" stroke="black" stroke-width="3" stroke-miterlimit="10" stroke-linecap="round" stroke-linejoin="round"/>
<path d="M357.18 211.04C357.18 211.04 372.83 187.49 399.74 167.97Z" fill="white"/>
<path d="M357.18 211.04C357.18 211.04 372.83 187.49 399.74 167.97" stroke="black" stroke-width="3" stroke-miterlimit="10" stroke-linecap="round" stroke-linejoin="round"/>
<path d="M613.89 125.74C613.89 125.74 657.29 129.1 700.7 169.48" stroke="black" stroke-width="3" stroke-miterlimit="10" stroke-linecap="round" stroke-linejoin="round"/>
<path d="M630.63 144.5C630.63 144.5 661.42 151.57 692.2 177.05" stroke="black" stroke-width="3" stroke-miterlimit="10" stroke-linecap="round" stroke-linejoin="round"/>
</g>
<defs>
<clipPath id="clip0_2_4">
<rect width="1027.44" height="1052.72" fill="white" transform="translate(69 62)"/>
</clipPath>
</defs>
</svg>
