<svg width="3395" height="1184" viewBox="0 0 3395 1184" fill="none" xmlns="http://www.w3.org/2000/svg">
<g clip-path="url(#clip0_686_2574)">
<rect width="3395" height="1184" fill="#FE6E26"/>
<path d="M2615.25 1102.54C2615.25 1102.54 2628.65 1136.1 2623.13 1168.01C2617.6 1199.92 2607.9 1212.59 2607.9 1212.59C2607.9 1212.59 2614.73 1371.66 2608.18 1406.55C2601.63 1441.44 2560.79 1498.05 2522.53 1491.99C2484.27 1485.95 2461.41 1446.62 2456.96 1384.93C2452.5 1323.24 2451.48 1174.71 2449.93 1153.68C2448.37 1132.65 2462.33 1109.48 2476.86 1100.41C2491.38 1091.32 2585.31 1074.12 2597.18 1076.73C2609.07 1079.32 2615.25 1102.54 2615.25 1102.54Z" fill="#2D6C4A"/>
<path d="M2385.85 1077.55C2385.85 1077.55 2324.82 1224.73 2303.47 1297.07C2282.12 1369.4 2277.15 1415.38 2273.5 1430.06C2269.83 1444.72 2238.98 1531.11 2226.15 1582.45C2213.32 1633.78 2190.19 1693.61 2194.2 1701.55C2198.2 1709.49 2249.17 1713.8 2291.27 1716.49C2333.37 1719.17 2364.76 1727.59 2371.25 1712.52C2377.75 1697.46 2408.14 1557.35 2420.61 1493.32C2433.07 1429.3 2458.09 1342.3 2473.93 1291.97C2489.78 1241.64 2536.7 1096.41 2525.65 1089.44C2514.58 1082.44 2385.85 1077.55 2385.85 1077.55Z" fill="#2D6C4A"/>
<path d="M2541.19 861.744C2541.19 861.744 2592.64 876.112 2602.95 883.341C2613.24 890.553 2584.22 1092.38 2573.94 1093.12C2563.65 1093.87 2420.38 1084.71 2414.49 1076.77C2408.59 1068.83 2422.22 885.824 2425.89 882.921C2429.56 880.019 2486.85 872.698 2494.2 871.949C2501.52 871.219 2541.19 861.744 2541.19 861.744Z" fill="#FBA658"/>
<path d="M2726.47 943.514C2726.47 943.514 2743.75 952.879 2753.32 970.223C2762.91 987.566 2775.43 1002.74 2779.49 1022.97C2783.57 1043.21 2781.79 1074.3 2774.46 1088.43C2767.14 1102.54 2750.65 1121.02 2740.38 1127.19C2730.1 1133.36 2709.53 1137.72 2709.53 1137.72L2680.3 1023.88L2726.47 943.514Z" fill="#FBA658"/>
<path d="M2305.9 943.897C2305.9 943.897 2271.61 976.029 2260.85 990.414C2250.09 1004.8 2244.27 1013.05 2236.72 1033.5C2229.17 1053.95 2232.96 1070.92 2238.04 1080.76C2243.14 1090.61 2338.76 1029.19 2338.76 1029.19L2305.9 943.897Z" fill="#FBA658"/>
<path d="M2481.81 801.224C2481.81 801.224 2470.07 801.882 2470.81 786.638C2471.55 771.394 2488.59 769.075 2499.43 768.29C2510.28 767.505 2527.32 769.002 2527.32 769.002C2527.32 769.002 2513.35 755.31 2522.63 740.796C2531.9 726.301 2549.7 725.497 2565.99 731.577C2582.27 737.656 2586.94 757.464 2582.33 769.678C2577.71 781.891 2559.9 787.258 2559.9 787.258C2559.9 787.258 2570.75 794.871 2566.15 816.213C2561.94 835.729 2553.04 842.155 2547.61 844.455C2542.19 846.756 2529.8 851.356 2529.8 851.356L2481.81 801.224Z" fill="#242326"/>
<path d="M2548.68 877.171L2591.64 862.62L2743.03 894.916L2716.64 920.274L2548.68 877.171Z" fill="#844E29"/>
<path d="M2753.6 845.715C2749.93 842.465 2719.05 830.946 2715.73 830.599C2712.43 830.252 2707.64 832.789 2707.64 832.789C2704.71 832.552 2693.49 838.303 2690.39 845.112C2687.09 852.342 2690.43 861.744 2690.43 861.744C2690.43 861.744 2688.22 861.744 2685.66 862.109C2683.09 862.474 2675.02 867.549 2672.46 874.432C2669.9 881.315 2673.59 889.256 2673.59 889.256C2673.59 889.256 2669.18 888.544 2664.41 892.889C2659.64 897.234 2658.55 903.387 2659.29 906.636C2660.03 909.886 2700.82 918.503 2704.14 919.945C2707.44 921.387 2725.43 907.969 2726.89 907.969C2728.36 907.969 2751.8 862.365 2753.62 859.115C2755.45 855.829 2757.27 848.965 2753.6 845.715Z" fill="#E0D3CA"/>
<path d="M2459.96 855.646L2302.82 848.618L2282.51 868.773L2444.86 878.156L2459.96 855.646Z" fill="#844E29"/>
<path d="M2413.67 863.131C2413.67 863.131 2424.3 798.669 2424.63 788.536C2424.96 778.404 2423.93 760.915 2414.65 760.184C2405.38 759.454 2396.07 759.198 2390.65 783.443C2385.26 807.687 2379.8 844.492 2379.27 851.228C2378.73 857.965 2376.91 874.268 2376.91 874.268L2412.19 875.582L2413.67 863.131Z" fill="#CE6620"/>
<path d="M2408.96 830.343C2408.96 830.343 2391.17 825.56 2389.43 828.81C2387.69 832.059 2409.5 835.711 2408.96 830.343Z" fill="#844E29"/>
<path d="M2444.21 874.231C2444.21 874.231 2445.55 851.612 2442.32 843.123C2439.08 834.652 2422.79 829.504 2408.96 830.343C2395.12 831.183 2389.17 850.078 2388.02 858.202C2386.87 866.326 2386.78 873.574 2386.78 873.574L2444.38 878.102L2444.21 874.231Z" fill="#F2C8C2"/>
<path d="M2429.82 833.447L2430.69 822.876L2406.27 820.96L2405.38 832.005L2429.82 833.447Z" fill="#F29191"/>
<path d="M2417.12 784.082C2417.12 784.082 2398.8 779.737 2397.59 782.548C2396.38 785.36 2415.78 788.335 2417.93 786.09C2420.09 783.826 2417.12 784.082 2417.12 784.082Z" fill="#844E29"/>
<path d="M2412.82 806.957C2412.82 806.957 2393.06 802.028 2393.32 804.949C2393.58 807.87 2415.43 811.028 2412.82 806.957Z" fill="#844E29"/>
<path d="M2380.14 885.641C2380.14 885.641 2375.13 817.052 2373.68 816.687C2372.24 816.34 2325.74 814.132 2316.64 814.387C2307.53 814.643 2305.75 815.227 2305.75 815.227L2292.8 838.631C2292.8 838.631 2293.12 846.883 2294.18 854.934C2295.23 863.004 2300.69 895.828 2300.69 895.828C2300.69 895.828 2364.63 897.946 2365.19 897.271C2365.73 896.595 2380.21 896.76 2380.21 896.76L2380.14 885.641Z" fill="#E0D3CA"/>
<path d="M2372.26 816.341C2372.26 816.341 2361 840.129 2359.53 840.001C2358.07 839.891 2292.82 838.632 2292.82 838.632L2292.62 841.041L2361.81 842.119L2374.05 818.422L2372.26 816.341Z" fill="#BAB1AA"/>
<path d="M2362.2 841.188L2365.19 897.289L2362.15 898.494L2359.81 842.447L2362.2 841.188Z" fill="#BAB1AA"/>
<path d="M2459.96 855.646L2440.71 874.925C2440.71 874.925 2381.27 868.809 2362.11 868.754C2342.95 868.7 2282.62 867.349 2282.51 868.791C2282.4 870.233 2289.1 938.95 2289.86 954.011C2290.6 969.055 2295.68 1057.98 2297.48 1072.15C2299.28 1086.31 2300.63 1099.97 2305.55 1099.86C2310.46 1099.77 2443.42 1084.09 2445.16 1080.84C2446.9 1077.59 2460.03 1054.91 2459.29 1051.96C2458.55 1049 2460.41 941.287 2459.61 920.913C2458.77 900.52 2459.96 855.646 2459.96 855.646Z" fill="#A05F32"/>
<path d="M2443.34 872.716C2443.34 872.716 2440.73 917.006 2441.65 948.042C2442.58 979.077 2441.8 1037.04 2441.8 1037.04L2437.74 1038.65C2437.74 1038.65 2440.26 971.136 2440.47 968.726C2440.67 966.316 2440.52 901.506 2440.38 897.143C2440.25 892.78 2440.71 874.925 2440.71 874.925L2443.34 872.716Z" fill="#844E29"/>
<path d="M2542.42 866.18C2542.42 866.18 2527.34 886.591 2520.38 894.058C2513.41 901.488 2499.11 909.137 2490.6 904.409C2482.05 899.644 2482.25 892.597 2483.59 888.398C2484.94 884.218 2490.13 876.587 2490.13 876.587L2489.08 873.793L2484.89 862.675L2493.73 858.495L2533.25 839.891C2533.25 839.891 2539.87 862.201 2540.84 863.716C2541.82 865.231 2542.42 866.18 2542.42 866.18Z" fill="#C1875F"/>
<path d="M2496.14 874.012C2493.31 874.158 2490.97 874.049 2489.08 873.793L2484.89 862.675L2493.73 858.494C2506.25 856.669 2523.24 854.314 2524.04 855.135C2525.33 856.395 2506.23 873.465 2496.14 874.012Z" fill="#A05F32"/>
<path d="M2475.32 812.16C2475.32 812.16 2474.15 808.545 2468.92 808.545C2463.69 808.545 2460.41 814.844 2461.18 819.809C2461.96 824.757 2467.19 828.189 2469.14 828.189C2471.09 828.189 2475.32 812.16 2475.32 812.16Z" fill="#C1875F"/>
<path d="M2484.39 794.488C2484.39 794.488 2475.5 809.495 2471.64 819.043C2467.79 828.572 2465.54 835.82 2465.3 843.068C2465.06 850.316 2469.66 859.334 2475.98 862.876C2482.31 866.418 2493.29 867.604 2503.1 866.838C2512.91 866.053 2522.31 860.01 2526.84 854.022C2531.34 848.034 2533.79 841.553 2533.79 841.553C2533.79 841.553 2540.51 840.402 2544.62 837.208C2548.74 834.031 2549.39 827.678 2547.18 824.373C2544.97 821.069 2541.1 820.065 2538.26 820.193C2535.42 820.321 2534.9 820.576 2534.9 820.576C2534.9 820.576 2535.02 814.606 2535.15 814.351C2535.28 814.095 2527.13 806.866 2525.06 803.05C2522.98 799.235 2522.07 797.336 2522.07 797.336C2522.07 797.336 2512.39 797.354 2504.25 796.989C2496.14 796.624 2484.39 794.488 2484.39 794.488Z" fill="#C1875F"/>
<path d="M2493.57 808.947C2493.57 808.947 2485.78 821.343 2484.26 824.337C2482.73 827.331 2483.61 830.526 2486.44 830.745C2489.26 830.946 2491.43 829.668 2490.34 829.449C2489.24 829.23 2487.3 830.526 2485.78 829.029C2484.26 827.532 2485.33 824.976 2486.2 823.479C2487.07 822 2496.18 808.947 2493.57 808.947Z" fill="#A05F32"/>
<path d="M2494.68 824.647C2494.68 824.647 2496.85 824.848 2497.5 826.984C2498.15 829.12 2496.42 830.836 2494.47 831.146C2492.53 831.475 2491.88 830.507 2492.3 830.088C2492.73 829.668 2493.49 830.836 2495.01 830.507C2496.53 830.179 2497.18 827.933 2496.53 826.765C2495.88 825.597 2494.14 826.016 2494.03 825.268C2493.92 824.538 2494.68 824.647 2494.68 824.647Z" fill="#A05F32"/>
<path d="M2482.2 824.136C2482.2 824.136 2480.03 824.666 2479.82 826.382C2479.6 828.098 2480.58 829.485 2481.79 829.376C2482.98 829.266 2481.25 828.956 2480.81 827.678C2480.36 826.4 2480.47 825.122 2481.68 824.903C2482.86 824.666 2482.2 824.136 2482.2 824.136Z" fill="#A05F32"/>
<path d="M2504.58 837.08C2504.16 835.382 2504.75 832.972 2498.68 833.173C2495.23 833.282 2489.67 834.56 2486.28 833.556C2482.88 832.552 2477.71 828.919 2475.11 831.201C2472.52 833.483 2473.68 840.074 2478.8 843.689C2483.31 846.865 2487.93 847.687 2493.34 846.993C2498.74 846.281 2505.45 840.603 2504.58 837.08Z" fill="white"/>
<path d="M2507.09 811.85C2503.75 810.791 2501.56 817.527 2504.9 818.586C2508.24 819.627 2510.42 812.909 2507.09 811.85Z" fill="#242326"/>
<path d="M2483.59 808.454C2480.25 807.395 2478.06 814.132 2481.4 815.191C2484.74 816.25 2486.93 809.513 2483.59 808.454Z" fill="#242326"/>
<path d="M2507.12 803.853C2507.12 803.853 2509.96 803.47 2514.36 804.73C2518.75 805.989 2519.53 807.651 2518.36 808.399C2517.19 809.166 2515 807.395 2511.52 806.884C2508.03 806.373 2505.97 806.263 2505.58 805.369C2505.17 804.492 2507.12 803.853 2507.12 803.853Z" fill="#242326"/>
<path d="M2487.63 801.717C2487.63 801.717 2482.34 800.713 2481.83 801.224C2481.31 801.736 2480.68 803.014 2481.05 803.251C2481.44 803.506 2483.88 803.379 2485.57 803.872C2487.26 804.383 2489.06 804.492 2489.06 803.616C2489.04 802.74 2488.52 801.973 2487.63 801.717Z" fill="#242326"/>
<path d="M2471.51 816.688C2471.51 816.688 2466.47 810.334 2465.43 811.357C2464.39 812.379 2466.34 813.255 2467.9 815.044C2469.46 816.815 2470.88 819.864 2471.38 819.225C2471.9 818.586 2472.29 817.053 2471.51 816.688Z" fill="#A05F32"/>
<path d="M2541.77 829.577C2541.77 829.577 2535.59 836.696 2534.55 835.181C2533.51 833.666 2538.8 829.449 2540.36 828.682C2541.9 827.933 2541.77 829.577 2541.77 829.577Z" fill="#A05F32"/>
<path d="M2606.4 898.037L2638.6 824.209L2626.84 821.343L2599.76 877.791C2599.76 877.791 2634.14 796.003 2631.94 793.849C2629.73 791.676 2616.51 789.54 2616.51 789.54L2582.14 877.116L2598.91 801.882C2598.91 801.882 2578.34 799.015 2578.34 802.648C2578.34 806.263 2561.59 889.457 2561.59 889.457L2606.4 898.037Z" fill="#065131"/>
<path d="M2726.78 846.007C2726.78 846.007 2718.45 845.058 2712.09 851.813C2705.73 858.568 2711.63 869.649 2709.68 869.649C2707.72 869.649 2703.28 856.651 2711.11 848.91C2718.94 841.188 2726.78 846.007 2726.78 846.007Z" fill="#BAB1AA"/>
<path d="M2705.29 879.781C2705.29 879.781 2694.51 878.832 2690.6 887.047C2686.7 895.244 2692.58 906.326 2694.55 905.851C2696.51 905.358 2689.15 897.673 2692.56 889.95C2695.99 882.209 2705.29 879.781 2705.29 879.781Z" fill="#BAB1AA"/>
<path d="M2710.59 833.009C2710.59 833.009 2745.88 845.478 2747.85 848.855C2749.82 852.233 2748.35 857.527 2746.88 861.872C2745.42 866.217 2717.1 913.026 2717.1 913.026L2713.67 914.487C2713.67 914.487 2730.27 885.532 2733.2 881.187C2736.13 876.842 2745.4 860.43 2745.88 858.02C2746.37 855.61 2746.85 851.758 2743.92 849.348C2740.99 846.938 2710.59 833.009 2710.59 833.009Z" fill="#BAB1AA"/>
<path d="M2682.01 870.416C2682.01 870.416 2680.53 861.379 2672.81 858.859C2665.1 856.34 2662.54 859.955 2662.54 859.955C2662.54 859.955 2663.98 850.918 2654.8 848.033C2645.62 845.149 2640.12 850.954 2639.74 853.492C2639.74 853.492 2632.03 850.243 2625.06 854.606C2618.08 858.951 2614.8 867.276 2615.54 870.525C2616.28 873.775 2617.03 874.87 2617.03 874.87C2617.03 874.87 2610.42 877.408 2610.07 884.29C2609.72 891.155 2611.93 893.693 2616.34 896.942C2620.75 900.192 2628.1 898.366 2628.1 898.366C2628.1 898.366 2633.98 903.058 2642.06 904.135C2650.15 905.212 2656.01 901.579 2656.01 901.579C2656.01 901.579 2659.33 907.001 2667.04 906.253C2674.76 905.523 2679.88 895.39 2679.51 890.68C2679.14 885.988 2678.02 884.528 2678.02 884.528C2678.02 884.528 2683.12 878.741 2682.01 870.416Z" fill="#108249"/>
<path d="M2548.68 877.171C2548.68 877.171 2538.41 948.79 2534.29 984.956C2530.19 1021.12 2530.29 1072.48 2530.29 1072.48C2530.29 1072.48 2577.5 1083.25 2610.11 1083.9C2642.73 1084.58 2681.59 1080.16 2681.59 1080.16C2681.59 1080.16 2705.84 1061.32 2706.53 1057.71C2707.22 1054.09 2715.47 1009.24 2724.43 975.225C2733.38 941.214 2743.03 894.916 2743.03 894.916L2719.46 913.044C2719.46 913.044 2642.4 895.098 2621.57 890.79C2600.74 886.481 2548.68 877.171 2548.68 877.171Z" fill="#A05F32"/>
<path d="M2715.15 914.486C2715.15 914.486 2696.9 979.607 2688.15 1017.23C2679.4 1054.86 2672.83 1080.18 2672.83 1080.18H2677.97C2677.97 1080.18 2694.72 999.871 2697.65 990.469C2700.58 981.067 2718.08 913.044 2718.08 913.044L2715.15 914.486Z" fill="#844E29"/>
<path d="M2363.08 1043.07C2363.08 1043.07 2365.73 1033.12 2347.48 1030.96C2329.23 1028.81 2307.9 1019.15 2294.38 1017.73C2280.86 1016.3 2251.71 1021.27 2245.16 1029.46C2238.6 1037.66 2232.4 1054.95 2233.75 1065.58C2235.11 1076.2 2239.49 1090.33 2250.06 1100.96C2260.63 1111.58 2285.33 1120.42 2296.72 1120.95C2308.11 1121.48 2343.05 1117.7 2353.17 1115.6C2363.3 1113.5 2369.08 1105.61 2369.08 1105.61L2363.08 1043.07Z" fill="#FBA658"/>
<path d="M2358.2 1038.39C2358.2 1038.39 2380.08 1035.38 2381.08 1033.08C2382.09 1030.78 2388.82 1026.58 2399.5 1023.48C2410.18 1020.37 2414.89 1021.52 2414.89 1021.52C2414.89 1021.52 2432.51 1011.87 2437.61 1008.31C2442.71 1004.76 2451.54 1004.67 2454.34 1009.62C2457.14 1014.57 2453.32 1022.16 2449.02 1025.78C2444.72 1029.39 2427.04 1039.83 2427.04 1039.83C2427.04 1039.83 2442.25 1040.24 2452.91 1037.13C2463.59 1034.03 2466.54 1027.16 2474.44 1028.57C2482.34 1029.98 2476.48 1042.94 2476.48 1042.94C2476.48 1042.94 2480.27 1045.6 2479.4 1051.45C2478.52 1057.29 2476.74 1059.51 2476.74 1059.51C2476.74 1059.51 2478.04 1063.17 2476.91 1067.42C2475.76 1071.67 2472.16 1076.51 2472.16 1076.51C2472.16 1076.51 2471.16 1083.92 2467.27 1087.57C2463.37 1091.21 2435.57 1097.71 2421.72 1100.57C2407.86 1103.42 2389.73 1099.64 2385.18 1101.25C2380.64 1102.87 2365.1 1106.78 2363.22 1105.05C2361.35 1103.33 2354.64 1077.53 2353.73 1058.93C2352.84 1040.35 2358.2 1038.39 2358.2 1038.39Z" fill="#C1875F"/>
<path d="M2476.48 1042.96C2476.48 1042.96 2470.64 1050.79 2458.64 1055.37C2446.64 1059.95 2427.71 1061.23 2427.71 1061.23C2427.71 1061.23 2448.24 1065.21 2462.59 1056.08C2476.97 1046.94 2476.48 1042.96 2476.48 1042.96Z" fill="#A05F32"/>
<path d="M2457.94 1073.86C2445.09 1079.16 2432.22 1079.74 2432.22 1079.74C2432.22 1079.74 2447.81 1080.18 2460.29 1074.45C2472.78 1068.72 2476.73 1059.57 2476.73 1059.57C2476.73 1059.57 2470.81 1068.55 2457.94 1073.86Z" fill="#A05F32"/>
<path d="M2601.41 1055.1C2601.41 1055.1 2606.55 1052.92 2613.15 1051.1C2619.75 1049.27 2642.16 1045.99 2656.49 1046.32C2670.81 1046.64 2712.67 1031.03 2717.82 1034.63C2722.98 1038.25 2723.81 1096.1 2720.53 1112.73C2717.25 1129.36 2714.34 1137.69 2709.55 1137.71C2704.79 1137.71 2656.29 1140.34 2633.88 1139.28C2611.48 1138.24 2597.15 1136.81 2589.78 1128.87C2582.42 1120.93 2584.61 1108.62 2584.61 1108.62L2601.41 1055.1Z" fill="#FBA658"/>
<path d="M2449.04 1089.73C2436.78 1092.7 2434.87 1091.37 2435.57 1092.61C2436.28 1093.85 2450.89 1091.44 2457.99 1088.07C2465.08 1084.67 2471.63 1078.1 2471.63 1078.1C2471.63 1078.1 2461.31 1086.75 2449.04 1089.73Z" fill="#A05F32"/>
<path d="M2556.55 1109.17C2556.55 1109.17 2555.29 1193.59 2555.06 1272.31C2554.84 1351.03 2563.08 1448.87 2566.41 1455.68C2569.75 1462.49 2594.51 1428.47 2638.76 1387.54C2683.03 1346.61 2724.17 1301.67 2724.17 1301.67L2730.14 1305.48C2730.14 1305.48 2639.06 1391.74 2609.94 1424.64C2580.82 1457.54 2563.32 1472.76 2559.7 1461.77C2556.08 1450.77 2554.19 1362.35 2551.82 1307.69C2549.44 1253.03 2549.24 1106.87 2549.24 1106.87L2556.55 1109.17Z" fill="#69977E"/>
<path d="M2454.43 1358.3C2454.43 1358.3 2457.85 1298.09 2458.09 1260.59C2458.33 1223.09 2464.37 1145.85 2461.46 1145.1C2458.55 1144.35 2457.99 1150.01 2456.25 1166.06C2454.51 1182.11 2443.81 1397.42 2445.33 1391.69C2446.85 1385.99 2454.43 1358.3 2454.43 1358.3Z" fill="#69977E"/>
<path d="M2607.29 1058.89C2602.78 1052.94 2600.82 1046.63 2592.03 1042.96C2585.96 1040.42 2577.39 1038.52 2572.74 1034.49C2567.56 1029.99 2564.61 1021.61 2560.5 1016.21C2556.6 1011.08 2551.5 1005.29 2544.62 1008.89C2536.59 1013.09 2541.04 1022.24 2542.88 1028.72C2544.16 1033.19 2548.22 1042.81 2552.69 1045.51C2552.56 1045.44 2536.18 1036.88 2534.59 1030.63C2532.98 1024.35 2535.37 1016.5 2529.79 1016.5C2524.2 1016.52 2520.23 1023.59 2519.44 1028.3C2518.64 1033.01 2518.64 1033.01 2518.64 1033.01C2518.64 1033.01 2512.28 1040.09 2512.28 1045.58C2512.3 1051.08 2512.3 1051.08 2512.3 1051.08C2512.3 1051.08 2509.13 1058.15 2510.72 1066C2512.33 1073.85 2515.52 1076.99 2515.52 1076.99C2515.52 1076.99 2513.93 1080.13 2518.73 1087.19C2523.54 1094.26 2534.7 1098.14 2545.09 1105.19C2555.47 1112.24 2568.23 1115.36 2575.41 1117.7C2582.59 1120.03 2596.94 1123.16 2596.94 1123.16C2596.94 1123.16 2607.81 1110.25 2614.43 1091.34C2618.01 1081.13 2620.9 1070.92 2614.78 1064.64C2613.85 1063.68 2608.03 1059.88 2607.29 1058.89Z" fill="#C1875F"/>
<path d="M2518.64 1032.99C2518.64 1032.99 2519.84 1042.41 2524.65 1050.64C2529.45 1058.88 2542.21 1066.31 2541.43 1067.49C2540.63 1068.68 2525.87 1057.71 2522.26 1050.26C2518.66 1042.81 2518.64 1032.99 2518.64 1032.99Z" fill="#A05F32"/>
<path d="M2512.3 1051.06C2512.3 1051.06 2512.7 1059.3 2519.9 1068.31C2527.1 1077.33 2536.67 1081.62 2535.07 1082.43C2533.48 1083.21 2521.5 1073.43 2517.51 1067.93C2513.52 1062.44 2510.7 1051.06 2512.3 1051.06Z" fill="#A05F32"/>
<path d="M2530.71 1090.28C2528.71 1088.32 2515.54 1076.95 2515.54 1076.95C2517.53 1082.85 2532.7 1092.25 2530.71 1090.28Z" fill="#A05F32"/>
</g>
<defs>
<clipPath id="clip0_686_2574">
<rect width="3395" height="1184" fill="white"/>
</clipPath>
</defs>
</svg>
