<svg width="744" height="939" viewBox="0 0 744 939" fill="none" xmlns="http://www.w3.org/2000/svg">
<rect width="744" height="939" fill="white"/>
<path d="M201.113 83V46.5898H217.693C220.943 46.5898 223.559 47.4277 225.539 49.1035C227.52 50.8301 228.51 53.1491 228.51 56.0605C228.51 59.5306 227.249 62.0104 224.727 63.5V63.7031C228.146 65.2943 229.855 68.2227 229.855 72.4883C229.855 75.7891 228.84 78.3535 226.809 80.1816C224.727 82.0605 221.883 83 218.277 83H201.113ZM208.172 61.1133H216.551C218.142 61.1133 219.318 60.7324 220.08 59.9707C220.876 59.2259 221.273 58.2018 221.273 56.8984C221.273 54.224 219.75 52.8867 216.703 52.8867H208.172V61.1133ZM208.172 76.6523H217.186C219.014 76.6523 220.359 76.2207 221.223 75.3574C222.137 74.4941 222.594 73.3516 222.594 71.9297C222.594 70.5924 222.137 69.4668 221.223 68.5527C220.342 67.6725 218.997 67.2324 217.186 67.2324H208.172V76.6523ZM242.754 83.457C239.809 83.457 237.507 82.6615 235.848 81.0703C234.155 79.5469 233.309 77.541 233.309 75.0527C233.309 72.446 234.223 70.3978 236.051 68.9082C237.862 67.4186 240.587 66.6738 244.227 66.6738C246.63 66.6738 248.636 66.9531 250.244 67.5117V65.1758C250.244 63.974 249.863 63.0176 249.102 62.3066C248.323 61.5788 247.146 61.2148 245.572 61.2148C244.117 61.2148 243.008 61.5449 242.246 62.2051C241.451 62.8991 241.053 63.7285 241.053 64.6934H234.502C234.502 62.002 235.484 59.8014 237.447 58.0918C239.377 56.3652 242.136 55.502 245.725 55.502C249.33 55.502 252.14 56.3822 254.154 58.1426C256.202 59.9876 257.227 62.3066 257.227 65.0996V83H251.031L250.498 80.1816H250.295C248.619 82.3652 246.105 83.457 242.754 83.457ZM244.43 77.9473C246.207 77.9473 247.629 77.4648 248.695 76.5C249.728 75.5182 250.244 74.3418 250.244 72.9707V72.3867C248.721 71.7943 246.935 71.498 244.887 71.498C243.397 71.498 242.255 71.7943 241.459 72.3867C240.63 72.9622 240.215 73.7409 240.215 74.7227C240.215 75.7214 240.579 76.5085 241.307 77.084C242.035 77.6595 243.076 77.9473 244.43 77.9473ZM273.273 83.457C269.465 83.457 266.57 82.5938 264.59 80.8672C262.609 79.1406 261.594 76.8216 261.543 73.9102H268.5C268.5 74.9935 268.915 75.8737 269.744 76.5508C270.59 77.2448 271.767 77.5918 273.273 77.5918C274.645 77.5918 275.753 77.3464 276.6 76.8555C277.378 76.3984 277.768 75.8145 277.768 75.1035C277.768 73.7663 276.727 72.8945 274.645 72.4883L270.277 71.6758C264.996 70.6771 262.355 67.9349 262.355 63.4492C262.355 61.1471 263.329 59.2428 265.275 57.7363C267.188 56.2467 269.803 55.502 273.121 55.502C276.456 55.502 279.13 56.3314 281.145 57.9902C283.142 59.6829 284.141 61.8496 284.141 64.4902H277.285C277.285 63.5085 276.921 62.679 276.193 62.002C275.415 61.3757 274.357 61.0625 273.02 61.0625C271.818 61.0625 270.887 61.2826 270.227 61.7227C269.533 62.1797 269.186 62.7721 269.186 63.5C269.186 64.7695 270.1 65.582 271.928 65.9375L276.879 66.8262C279.333 67.2832 281.271 68.1465 282.693 69.416C284.081 70.6517 284.775 72.5306 284.775 75.0527C284.775 77.6595 283.701 79.7161 281.551 81.2227C279.435 82.7122 276.676 83.457 273.273 83.457ZM293.129 52.582C291.69 52.582 290.615 52.2012 289.904 51.4395C289.176 50.7116 288.812 49.6706 288.812 48.3164C288.812 47.0469 289.176 46.0228 289.904 45.2441C290.632 44.5163 291.707 44.1523 293.129 44.1523C294.466 44.1523 295.524 44.5163 296.303 45.2441C297.064 46.0059 297.445 47.0299 297.445 48.3164C297.445 49.6875 297.064 50.7285 296.303 51.4395C295.541 52.2012 294.483 52.582 293.129 52.582ZM289.6 83V55.959H296.557V83H289.6ZM314 83.457C309.938 83.457 306.747 82.1452 304.428 79.5215C302.109 76.9486 300.949 73.6224 300.949 69.543C300.949 65.4635 302.075 62.0951 304.326 59.4375C306.544 56.8138 309.726 55.502 313.873 55.502C317.817 55.502 320.906 56.7461 323.141 59.2344C325.358 61.7057 326.467 64.8626 326.467 68.7051V71.3965H308.059C308.109 73.36 308.634 74.8919 309.633 75.9922C310.615 77.1263 312.07 77.6934 314 77.6934C316.844 77.6934 318.604 76.6523 319.281 74.5703H326.111C325.756 77.0755 324.486 79.1914 322.303 80.918C320.17 82.6107 317.402 83.457 314 83.457ZM308.109 66.7754H319.357C319.307 65.1673 318.816 63.847 317.885 62.8145C316.937 61.8158 315.6 61.3164 313.873 61.3164C312.028 61.3164 310.632 61.8158 309.684 62.8145C308.685 63.8132 308.16 65.1335 308.109 66.7754ZM331.291 83V55.959H337.156L337.689 60.0723H337.893C339.281 57.0592 341.625 55.5527 344.926 55.5527H346.881V62.002H344.443C342.361 62.002 340.753 62.6706 339.619 64.0078C338.468 65.362 337.893 67.2747 337.893 69.7461V83H331.291ZM382.402 83.457C376.884 83.457 372.652 81.7305 369.707 78.2773C366.728 74.8411 365.238 70.3639 365.238 64.8457C365.238 59.3275 366.728 54.8249 369.707 51.3379C372.669 47.8678 376.901 46.1328 382.402 46.1328C386.82 46.1328 390.477 47.4362 393.371 50.043C396.232 52.6328 397.789 55.9082 398.043 59.8691H390.756C390.553 57.7363 389.757 56.0013 388.369 54.6641C386.964 53.3099 384.975 52.6328 382.402 52.6328C379.152 52.6328 376.689 53.7246 375.014 55.9082C373.355 58.0749 372.525 61.054 372.525 64.8457C372.525 68.6543 373.355 71.6165 375.014 73.7324C376.689 75.916 379.152 77.0078 382.402 77.0078C384.874 77.0078 386.795 76.373 388.166 75.1035C389.571 73.8509 390.451 72.1836 390.807 70.1016H398.043C397.637 73.9779 396.046 77.1686 393.27 79.6738C390.477 82.196 386.854 83.457 382.402 83.457ZM406.777 52.582C405.339 52.582 404.264 52.2012 403.553 51.4395C402.825 50.7116 402.461 49.6706 402.461 48.3164C402.461 47.0469 402.825 46.0228 403.553 45.2441C404.281 44.5163 405.355 44.1523 406.777 44.1523C408.115 44.1523 409.173 44.5163 409.951 45.2441C410.713 46.0059 411.094 47.0299 411.094 48.3164C411.094 49.6875 410.713 50.7285 409.951 51.4395C409.189 52.2012 408.132 52.582 406.777 52.582ZM403.248 83V55.959H410.205V83H403.248ZM416.096 83V55.959H421.961L422.494 60.0723H422.697C424.085 57.0592 426.43 55.5527 429.73 55.5527H431.686V62.002H429.248C427.166 62.002 425.558 62.6706 424.424 64.0078C423.273 65.362 422.697 67.2747 422.697 69.7461V83H416.096ZM447.707 83.457C443.577 83.457 440.335 82.179 437.982 79.623C435.663 77.1009 434.504 73.724 434.504 69.4922C434.504 65.2266 435.646 61.8242 437.932 59.2852C440.2 56.763 443.408 55.502 447.555 55.502C451.312 55.502 454.224 56.4837 456.289 58.4473C458.337 60.4954 459.463 63.1022 459.666 66.2676H452.633C452.48 64.8796 451.964 63.7454 451.084 62.8652C450.204 62.0358 449.027 61.6211 447.555 61.6211C443.594 61.6211 441.613 64.2448 441.613 69.4922C441.613 74.7227 443.594 77.3379 447.555 77.3379C449.061 77.3379 450.255 76.9232 451.135 76.0938C452.015 75.3151 452.531 74.2233 452.684 72.8184H459.717C459.514 76.0007 458.388 78.5651 456.34 80.5117C454.275 82.4753 451.397 83.457 447.707 83.457ZM464.541 83V44.5078H471.498V83H464.541ZM488.941 83.457C484.879 83.457 481.688 82.1452 479.369 79.5215C477.05 76.9486 475.891 73.6224 475.891 69.543C475.891 65.4635 477.016 62.0951 479.268 59.4375C481.485 56.8138 484.667 55.502 488.814 55.502C492.758 55.502 495.848 56.7461 498.082 59.2344C500.299 61.7057 501.408 64.8626 501.408 68.7051V71.3965H483C483.051 73.36 483.576 74.8919 484.574 75.9922C485.556 77.1263 487.012 77.6934 488.941 77.6934C491.785 77.6934 493.546 76.6523 494.223 74.5703H501.053C500.697 77.0755 499.428 79.1914 497.244 80.918C495.111 82.6107 492.344 83.457 488.941 83.457ZM483.051 66.7754H494.299C494.248 65.1673 493.757 63.847 492.826 62.8145C491.878 61.8158 490.541 61.3164 488.814 61.3164C486.969 61.3164 485.573 61.8158 484.625 62.8145C483.626 63.8132 483.102 65.1335 483.051 66.7754Z" fill="#000C05"/>
<path d="M140.735 167.385L160.845 221.238V222H153.608L148.467 207.718H124.587L119.445 222H112.323V221.238L132.395 167.385H140.735ZM126.758 201.624H146.258L136.66 174.964H136.355L126.758 201.624ZM180.954 222.686C176.79 222.686 173.438 221.518 170.899 219.182C168.335 216.871 167.053 213.938 167.053 210.384C167.053 206.728 168.437 203.731 171.204 201.396C173.972 199.06 178.085 197.892 183.544 197.892C186.794 197.892 190.069 198.361 193.37 199.301V195.34C193.37 192.979 192.608 190.998 191.085 189.398C189.511 187.824 187.2 187.037 184.153 187.037C181.36 187.037 179.202 187.723 177.679 189.094C176.181 190.439 175.394 192.128 175.317 194.159H169.033C169.033 190.3 170.455 187.228 173.299 184.942C176.143 182.606 179.761 181.438 184.153 181.438C189.104 181.438 192.951 182.733 195.693 185.323C198.41 187.888 199.769 191.163 199.769 195.149V222H194.208L193.751 216.401H193.446C190.958 220.591 186.794 222.686 180.954 222.686ZM182.135 217.239C185.461 217.239 188.165 216.198 190.247 214.116C192.329 212.034 193.37 209.508 193.37 206.537V204.519C190.374 203.579 187.099 203.109 183.544 203.109C176.968 203.109 173.68 205.509 173.68 210.308C173.68 212.39 174.416 214.053 175.889 215.297C177.26 216.592 179.342 217.239 182.135 217.239Z" fill="#000C05"/>
<path d="M270.602 167.385L290.178 221.238V222H280.199L275.896 209.355H253.615L249.312 222H239.638V221.238L259.138 167.385H270.602ZM256.319 201.319H273.191L264.927 176.982H264.584L256.319 201.319ZM309.03 222.686C304.688 222.686 301.273 221.492 298.785 219.105C296.246 216.82 294.977 213.837 294.977 210.155C294.977 206.372 296.348 203.351 299.09 201.091C301.883 198.806 305.996 197.663 311.43 197.663C314.654 197.663 317.777 198.107 320.799 198.996V195.264C320.799 193.207 320.151 191.531 318.856 190.236C317.536 188.992 315.53 188.37 312.839 188.37C310.503 188.37 308.688 188.941 307.393 190.084C306.047 191.277 305.336 192.712 305.26 194.388H296.843C296.843 190.528 298.303 187.329 301.223 184.79C304.092 182.302 308.015 181.058 312.991 181.058C318.146 181.058 322.195 182.378 325.141 185.019C328.111 187.685 329.597 191.062 329.597 195.149V222H321.789L321.18 217.239H320.875C318.387 220.87 314.438 222.686 309.03 222.686ZM311.049 215.602C313.969 215.602 316.33 214.738 318.133 213.012C319.91 211.311 320.799 209.241 320.799 206.804V205.471C318.082 204.531 315.162 204.062 312.039 204.062C309.348 204.062 307.329 204.557 305.983 205.547C304.562 206.588 303.851 208.022 303.851 209.851C303.851 211.577 304.473 212.948 305.717 213.964C306.885 215.056 308.662 215.602 311.049 215.602Z" fill="#000C05"/>
<path d="M407.935 167.385L427.13 221.238V222H415.323L411.591 210.536H390.225L386.492 222H375.257V221.238L394.376 167.385H407.935ZM393.348 201.091H408.468L401.079 178.315H400.736L393.348 201.091ZM444.992 222.686C440.574 222.686 437.121 221.492 434.633 219.105C432.094 216.82 430.824 213.812 430.824 210.079C430.824 206.169 432.195 203.097 434.938 200.862C437.654 198.628 441.742 197.511 447.201 197.511C450.807 197.511 453.815 197.93 456.228 198.768V195.264C456.228 193.461 455.656 192.026 454.514 190.96C453.346 189.868 451.581 189.322 449.22 189.322C447.036 189.322 445.373 189.817 444.23 190.808C443.037 191.849 442.44 193.093 442.44 194.54H432.614C432.614 190.503 434.087 187.202 437.032 184.638C439.927 182.048 444.065 180.753 449.448 180.753C454.856 180.753 459.071 182.073 462.093 184.714C465.165 187.481 466.701 190.96 466.701 195.149V222H457.408L456.608 217.772H456.304C453.79 221.048 450.02 222.686 444.992 222.686ZM447.506 214.421C450.172 214.421 452.305 213.697 453.904 212.25C455.453 210.777 456.228 209.013 456.228 206.956V206.08C453.942 205.191 451.264 204.747 448.191 204.747C445.957 204.747 444.243 205.191 443.05 206.08C441.806 206.943 441.184 208.111 441.184 209.584C441.184 211.082 441.729 212.263 442.821 213.126C443.913 213.989 445.475 214.421 447.506 214.421Z" fill="#000C05"/>
<path d="M533.191 167.385L551.968 221.238V222H538.409L535.21 211.641H514.91L511.711 222H498.762V221.238L517.5 167.385H533.191ZM518.262 200.862H531.858L525.231 179.648H524.927L518.262 200.862ZM568.992 222.686C564.523 222.686 561.045 221.492 558.557 219.105C555.992 216.719 554.71 213.659 554.71 209.927C554.71 206.042 556.094 202.97 558.861 200.71C561.578 198.476 565.653 197.358 571.087 197.358C574.515 197.358 577.435 197.752 579.847 198.539V195.149C579.847 193.626 579.352 192.407 578.361 191.493C577.32 190.604 575.733 190.16 573.601 190.16C571.722 190.16 570.287 190.579 569.297 191.417C568.205 192.28 567.659 193.372 567.659 194.692H556.424C556.424 190.604 557.935 187.202 560.956 184.485C563.927 181.819 568.269 180.486 573.981 180.486C579.491 180.486 583.833 181.845 587.007 184.562C590.231 187.329 591.844 190.858 591.844 195.149V222H581.065L580.228 218.344H579.923C577.333 221.238 573.689 222.686 568.992 222.686ZM572.039 213.354C574.4 213.354 576.292 212.758 577.714 211.564C579.136 210.371 579.847 208.886 579.847 207.108V206.728C577.638 205.839 575.188 205.395 572.496 205.395C570.643 205.395 569.183 205.75 568.116 206.461C567.075 207.146 566.555 208.086 566.555 209.279C566.555 210.523 567.024 211.488 567.964 212.174C568.954 212.961 570.312 213.354 572.039 213.354Z" fill="#000C05"/>
<path d="M124.758 255.086L129.27 261.766V262H126.984L122.566 255.355H118.488V262H116.402V245.195H123.047C124.711 245.195 126.016 245.668 126.961 246.613C127.906 247.559 128.379 248.766 128.379 250.234C128.379 251.469 128.059 252.504 127.418 253.34C126.77 254.184 125.883 254.766 124.758 255.086ZM118.488 247.117V253.434H122.93C123.984 253.434 124.793 253.152 125.355 252.59C125.91 252.035 126.188 251.262 126.188 250.27C126.188 249.27 125.91 248.492 125.355 247.938C124.785 247.391 123.977 247.117 122.93 247.117H118.488ZM136.852 262.211C135.102 262.211 133.73 261.621 132.738 260.441C131.762 259.277 131.273 257.758 131.273 255.883C131.273 254.008 131.746 252.48 132.691 251.301C133.645 250.113 135.02 249.52 136.816 249.52C138.488 249.52 139.793 250.07 140.73 251.172C141.66 252.289 142.125 253.73 142.125 255.496V256.48H133.395C133.395 257.707 133.688 258.66 134.273 259.34C134.875 260.059 135.734 260.418 136.852 260.418C137.664 260.418 138.344 260.25 138.891 259.914C139.43 259.578 139.781 259.09 139.945 258.449H141.961C141.797 259.559 141.234 260.461 140.273 261.156C139.297 261.859 138.156 262.211 136.852 262.211ZM133.418 254.805H140.039C140.039 253.766 139.766 252.926 139.219 252.285C138.672 251.645 137.871 251.324 136.816 251.324C135.723 251.324 134.891 251.645 134.32 252.285C133.742 252.934 133.441 253.773 133.418 254.805ZM150.117 267.707C148.562 267.707 147.312 267.316 146.367 266.535C145.398 265.73 144.902 264.738 144.879 263.559H146.824C146.871 264.23 147.176 264.801 147.738 265.27C148.285 265.746 149.078 265.984 150.117 265.984C151.234 265.984 152.082 265.672 152.66 265.047C153.23 264.453 153.516 263.66 153.516 262.668V260.301H153.422C152.648 261.574 151.418 262.211 149.73 262.211C148.051 262.211 146.77 261.629 145.887 260.465C144.996 259.293 144.539 257.766 144.516 255.883C144.539 253.867 145.012 252.305 145.934 251.195C146.84 250.078 148.105 249.52 149.73 249.52C151.418 249.52 152.648 250.16 153.422 251.441H153.516L153.785 249.73H155.531V262.715C155.531 264.176 155.055 265.371 154.102 266.301C153.141 267.238 151.812 267.707 150.117 267.707ZM150.059 260.418C151.207 260.418 152.082 259.984 152.684 259.117C153.27 258.289 153.562 257.211 153.562 255.883C153.562 254.555 153.27 253.465 152.684 252.613C152.09 251.754 151.215 251.324 150.059 251.324C148.848 251.324 147.969 251.746 147.422 252.59C146.844 253.441 146.555 254.539 146.555 255.883C146.555 257.203 146.844 258.289 147.422 259.141C147.977 259.992 148.855 260.418 150.059 260.418ZM167.391 249.73H169.406V257.535C169.406 258.941 168.941 260.062 168.012 260.898C167.082 261.758 165.875 262.188 164.391 262.188C162.906 262.188 161.699 261.758 160.77 260.898C159.84 260.062 159.375 258.941 159.375 257.535V249.73H161.391V257.195C161.391 259.328 162.391 260.395 164.391 260.395C166.391 260.395 167.391 259.328 167.391 257.195V249.73ZM173.484 262V244.234H175.5V262H173.484ZM182.895 262.211C181.613 262.211 180.582 261.852 179.801 261.133C179.012 260.422 178.617 259.52 178.617 258.426C178.617 257.301 179.043 256.379 179.895 255.66C180.746 254.941 182.012 254.582 183.691 254.582C184.691 254.582 185.699 254.727 186.715 255.016V253.797C186.715 253.07 186.48 252.461 186.012 251.969C185.527 251.484 184.816 251.242 183.879 251.242C183.02 251.242 182.355 251.453 181.887 251.875C181.426 252.289 181.184 252.809 181.16 253.434H179.227C179.227 252.246 179.664 251.301 180.539 250.598C181.414 249.879 182.527 249.52 183.879 249.52C185.402 249.52 186.586 249.918 187.43 250.715C188.266 251.504 188.684 252.512 188.684 253.738V262H186.973L186.832 260.277H186.738C185.973 261.566 184.691 262.211 182.895 262.211ZM183.258 260.535C184.281 260.535 185.113 260.215 185.754 259.574C186.395 258.934 186.715 258.156 186.715 257.242V256.621C185.793 256.332 184.785 256.188 183.691 256.188C181.668 256.188 180.656 256.926 180.656 258.402C180.656 259.043 180.883 259.555 181.336 259.938C181.758 260.336 182.398 260.535 183.258 260.535ZM192.75 262V249.73H194.508L194.672 251.805H194.766C195.031 251.117 195.449 250.57 196.02 250.164C196.59 249.781 197.254 249.59 198.012 249.59H199.113V251.535H198.152C195.895 251.535 194.766 253.039 194.766 256.047V262H192.75Z" fill="#000C05"/>
<path d="M243.402 260V243.195H245.875L251.535 253.449H251.629L257.301 243.195H259.715V260H257.723V246.535H257.629L251.676 257.117H251.441L245.488 246.465H245.395V260H243.402ZM268.891 260.211C267.141 260.211 265.77 259.621 264.777 258.441C263.801 257.277 263.312 255.758 263.312 253.883C263.312 252.008 263.785 250.48 264.73 249.301C265.684 248.113 267.059 247.52 268.855 247.52C270.527 247.52 271.832 248.07 272.77 249.172C273.699 250.289 274.164 251.73 274.164 253.496V254.48H265.434C265.434 255.707 265.727 256.66 266.312 257.34C266.914 258.059 267.773 258.418 268.891 258.418C269.703 258.418 270.383 258.25 270.93 257.914C271.469 257.578 271.82 257.09 271.984 256.449H274C273.836 257.559 273.273 258.461 272.312 259.156C271.336 259.859 270.195 260.211 268.891 260.211ZM265.457 252.805H272.078C272.078 251.766 271.805 250.926 271.258 250.285C270.711 249.645 269.91 249.324 268.855 249.324C267.762 249.324 266.93 249.645 266.359 250.285C265.781 250.934 265.48 251.773 265.457 252.805ZM281.77 260.211C280.16 260.211 278.895 259.645 277.973 258.512C277.051 257.402 276.578 255.852 276.555 253.859C276.578 251.977 277.035 250.449 277.926 249.277C278.816 248.105 280.098 247.52 281.77 247.52C283.457 247.52 284.688 248.16 285.461 249.441H285.555V242.234H287.57V260H285.824L285.555 258.301H285.461C284.688 259.574 283.457 260.211 281.77 260.211ZM282.098 258.418C283.246 258.418 284.121 257.984 284.723 257.117C285.309 256.266 285.602 255.18 285.602 253.859C285.602 252.531 285.309 251.441 284.723 250.59C284.121 249.746 283.246 249.324 282.098 249.324C280.887 249.324 280.008 249.746 279.461 250.59C278.883 251.441 278.594 252.531 278.594 253.859C278.594 255.195 278.883 256.289 279.461 257.141C280.016 257.992 280.895 258.418 282.098 258.418ZM292.656 245.387C291.734 245.387 291.273 244.914 291.273 243.969C291.273 243.039 291.734 242.574 292.656 242.574C293.102 242.574 293.445 242.695 293.688 242.938C293.93 243.219 294.051 243.562 294.051 243.969C294.051 244.375 293.93 244.719 293.688 245C293.461 245.258 293.117 245.387 292.656 245.387ZM291.648 260V247.73H293.664V260H291.648ZM305.523 247.73H307.539V255.535C307.539 256.941 307.074 258.062 306.145 258.898C305.215 259.758 304.008 260.188 302.523 260.188C301.039 260.188 299.832 259.758 298.902 258.898C297.973 258.062 297.508 256.941 297.508 255.535V247.73H299.523V255.195C299.523 257.328 300.523 258.395 302.523 258.395C304.523 258.395 305.523 257.328 305.523 255.195V247.73ZM325.059 247.52C326.395 247.52 327.434 247.918 328.176 248.715C328.918 249.543 329.289 250.648 329.289 252.031V260H327.273V252.348C327.273 250.332 326.367 249.324 324.555 249.324C323.602 249.324 322.852 249.668 322.305 250.355C321.758 251.043 321.484 252 321.484 253.227V260H319.469V252.348C319.469 250.332 318.566 249.324 316.762 249.324C315.785 249.324 315.023 249.668 314.477 250.355C313.914 251.059 313.633 252.016 313.633 253.227V260H311.617V247.73H313.375L313.539 249.652H313.633C314.375 248.23 315.602 247.52 317.312 247.52C319.078 247.52 320.309 248.23 321.004 249.652H321.098C321.84 248.23 323.16 247.52 325.059 247.52Z" fill="#000C05"/>
<path d="M376.559 260.211C374.551 260.211 373.008 259.742 371.93 258.805C370.82 257.859 370.242 256.578 370.195 254.961H372.34C372.41 256.023 372.809 256.848 373.535 257.434C374.246 258.027 375.254 258.324 376.559 258.324C379.293 258.324 380.66 257.348 380.66 255.395C380.66 254.629 380.406 254.027 379.898 253.59C379.391 253.176 378.645 252.863 377.66 252.652L375.211 252.125C373.734 251.812 372.625 251.285 371.883 250.543C371.133 249.816 370.758 248.832 370.758 247.59C370.758 246.168 371.27 245.039 372.293 244.203C373.316 243.391 374.746 242.984 376.582 242.984C378.387 242.984 379.828 243.441 380.906 244.355C381.984 245.293 382.535 246.5 382.559 247.977H380.426C380.379 247.016 380.035 246.262 379.395 245.715C378.762 245.176 377.809 244.906 376.535 244.906C374.137 244.906 372.938 245.801 372.938 247.59C372.938 248.84 373.891 249.672 375.797 250.086L378.07 250.566C381.258 251.215 382.852 252.824 382.852 255.395C382.852 256.902 382.289 258.078 381.164 258.922C380.047 259.781 378.512 260.211 376.559 260.211ZM390.938 260.211C389.188 260.211 387.816 259.621 386.824 258.441C385.848 257.277 385.359 255.758 385.359 253.883C385.359 252.008 385.832 250.48 386.777 249.301C387.73 248.113 389.105 247.52 390.902 247.52C392.574 247.52 393.879 248.07 394.816 249.172C395.746 250.289 396.211 251.73 396.211 253.496V254.48H387.48C387.48 255.707 387.773 256.66 388.359 257.34C388.961 258.059 389.82 258.418 390.938 258.418C391.75 258.418 392.43 258.25 392.977 257.914C393.516 257.578 393.867 257.09 394.031 256.449H396.047C395.883 257.559 395.32 258.461 394.359 259.156C393.383 259.859 392.242 260.211 390.938 260.211ZM387.504 252.805H394.125C394.125 251.766 393.852 250.926 393.305 250.285C392.758 249.645 391.957 249.324 390.902 249.324C389.809 249.324 388.977 249.645 388.406 250.285C387.828 250.934 387.527 251.773 387.504 252.805ZM413.004 247.52C414.34 247.52 415.379 247.918 416.121 248.715C416.863 249.543 417.234 250.648 417.234 252.031V260H415.219V252.348C415.219 250.332 414.312 249.324 412.5 249.324C411.547 249.324 410.797 249.668 410.25 250.355C409.703 251.043 409.43 252 409.43 253.227V260H407.414V252.348C407.414 250.332 406.512 249.324 404.707 249.324C403.73 249.324 402.969 249.668 402.422 250.355C401.859 251.059 401.578 252.016 401.578 253.227V260H399.562V247.73H401.32L401.484 249.652H401.578C402.32 248.23 403.547 247.52 405.258 247.52C407.023 247.52 408.254 248.23 408.949 249.652H409.043C409.785 248.23 411.105 247.52 413.004 247.52ZM422.32 245.387C421.398 245.387 420.938 244.914 420.938 243.969C420.938 243.039 421.398 242.574 422.32 242.574C422.766 242.574 423.109 242.695 423.352 242.938C423.594 243.219 423.715 243.562 423.715 243.969C423.715 244.375 423.594 244.719 423.352 245C423.125 245.258 422.781 245.387 422.32 245.387ZM421.312 260V247.73H423.328V260H421.312ZM427.652 260V243.195H434.391C435.828 243.195 437.004 243.582 437.918 244.355C438.832 245.152 439.289 246.223 439.289 247.566C439.289 249.238 438.586 250.383 437.18 251V251.094C439 251.828 439.91 253.18 439.91 255.148C439.91 256.664 439.438 257.848 438.492 258.699C437.531 259.566 436.223 260 434.566 260H427.652ZM429.715 250.402H433.887C434.887 250.402 435.688 250.16 436.289 249.676C436.867 249.215 437.156 248.512 437.156 247.566C437.156 246.777 436.898 246.16 436.383 245.715C435.859 245.285 435.117 245.07 434.156 245.07H429.715V250.402ZM429.715 258.102H434.32C435.344 258.102 436.176 257.84 436.816 257.316C437.441 256.809 437.754 256.086 437.754 255.148C437.754 254.195 437.457 253.469 436.863 252.969C436.27 252.469 435.422 252.219 434.32 252.219H429.715V258.102ZM447.973 260.211C446.152 260.211 444.77 259.621 443.824 258.441C442.895 257.277 442.43 255.758 442.43 253.883C442.43 252.008 442.902 250.48 443.848 249.301C444.801 248.113 446.176 247.52 447.973 247.52C449.777 247.52 451.156 248.113 452.109 249.301C453.055 250.48 453.527 252.008 453.527 253.883C453.527 255.758 453.062 257.277 452.133 258.441C451.188 259.621 449.801 260.211 447.973 260.211ZM447.973 258.418C449.184 258.418 450.074 258.008 450.645 257.188C451.199 256.359 451.477 255.258 451.477 253.883C451.477 252.508 451.199 251.395 450.645 250.543C450.074 249.73 449.184 249.324 447.973 249.324C446.785 249.324 445.906 249.73 445.336 250.543C444.758 251.395 444.469 252.508 444.469 253.883C444.469 255.258 444.758 256.359 445.336 257.188C445.914 258.008 446.793 258.418 447.973 258.418ZM456.867 260V242.234H458.883V260H456.867ZM467.215 260.211C465.605 260.211 464.34 259.645 463.418 258.512C462.496 257.402 462.023 255.852 462 253.859C462.023 251.977 462.48 250.449 463.371 249.277C464.262 248.105 465.543 247.52 467.215 247.52C468.902 247.52 470.133 248.16 470.906 249.441H471V242.234H473.016V260H471.27L471 258.301H470.906C470.133 259.574 468.902 260.211 467.215 260.211ZM467.543 258.418C468.691 258.418 469.566 257.984 470.168 257.117C470.754 256.266 471.047 255.18 471.047 253.859C471.047 252.531 470.754 251.441 470.168 250.59C469.566 249.746 468.691 249.324 467.543 249.324C466.332 249.324 465.453 249.746 464.906 250.59C464.328 251.441 464.039 252.531 464.039 253.859C464.039 255.195 464.328 256.289 464.906 257.141C465.461 257.992 466.34 258.418 467.543 258.418Z" fill="#000C05"/>
<path d="M523.402 260V243.195H530.141C531.578 243.195 532.754 243.582 533.668 244.355C534.582 245.152 535.039 246.223 535.039 247.566C535.039 249.238 534.336 250.383 532.93 251V251.094C534.75 251.828 535.66 253.18 535.66 255.148C535.66 256.664 535.188 257.848 534.242 258.699C533.281 259.566 531.973 260 530.316 260H523.402ZM525.465 250.402H529.637C530.637 250.402 531.438 250.16 532.039 249.676C532.617 249.215 532.906 248.512 532.906 247.566C532.906 246.777 532.648 246.16 532.133 245.715C531.609 245.285 530.867 245.07 529.906 245.07H525.465V250.402ZM525.465 258.102H530.07C531.094 258.102 531.926 257.84 532.566 257.316C533.191 256.809 533.504 256.086 533.504 255.148C533.504 254.195 533.207 253.469 532.613 252.969C532.02 252.469 531.172 252.219 530.07 252.219H525.465V258.102ZM543.723 260.211C541.902 260.211 540.52 259.621 539.574 258.441C538.645 257.277 538.18 255.758 538.18 253.883C538.18 252.008 538.652 250.48 539.598 249.301C540.551 248.113 541.926 247.52 543.723 247.52C545.527 247.52 546.906 248.113 547.859 249.301C548.805 250.48 549.277 252.008 549.277 253.883C549.277 255.758 548.812 257.277 547.883 258.441C546.938 259.621 545.551 260.211 543.723 260.211ZM543.723 258.418C544.934 258.418 545.824 258.008 546.395 257.188C546.949 256.359 547.227 255.258 547.227 253.883C547.227 252.508 546.949 251.395 546.395 250.543C545.824 249.73 544.934 249.324 543.723 249.324C542.535 249.324 541.656 249.73 541.086 250.543C540.508 251.395 540.219 252.508 540.219 253.883C540.219 255.258 540.508 256.359 541.086 257.188C541.664 258.008 542.543 258.418 543.723 258.418ZM552.617 260V242.234H554.633V260H552.617ZM562.965 260.211C561.355 260.211 560.09 259.645 559.168 258.512C558.246 257.402 557.773 255.852 557.75 253.859C557.773 251.977 558.23 250.449 559.121 249.277C560.012 248.105 561.293 247.52 562.965 247.52C564.652 247.52 565.883 248.16 566.656 249.441H566.75V242.234H568.766V260H567.02L566.75 258.301H566.656C565.883 259.574 564.652 260.211 562.965 260.211ZM563.293 258.418C564.441 258.418 565.316 257.984 565.918 257.117C566.504 256.266 566.797 255.18 566.797 253.859C566.797 252.531 566.504 251.441 565.918 250.59C565.316 249.746 564.441 249.324 563.293 249.324C562.082 249.324 561.203 249.746 560.656 250.59C560.078 251.441 559.789 252.531 559.789 253.859C559.789 255.195 560.078 256.289 560.656 257.141C561.211 257.992 562.09 258.418 563.293 258.418Z" fill="#000C05"/>
<path d="M92.457 325.195L98.6445 341.766V342H96.418L94.8359 337.605H87.4883L85.9062 342H83.7148V341.766L89.8906 325.195H92.457ZM88.1562 335.73H94.1562L91.2031 327.527H91.1094L88.1562 335.73ZM108.957 342V325.195H115.695C117.133 325.195 118.309 325.582 119.223 326.355C120.137 327.152 120.594 328.223 120.594 329.566C120.594 331.238 119.891 332.383 118.484 333V333.094C120.305 333.828 121.215 335.18 121.215 337.148C121.215 338.664 120.742 339.848 119.797 340.699C118.836 341.566 117.527 342 115.871 342H108.957ZM111.02 332.402H115.191C116.191 332.402 116.992 332.16 117.594 331.676C118.172 331.215 118.461 330.512 118.461 329.566C118.461 328.777 118.203 328.16 117.688 327.715C117.164 327.285 116.422 327.07 115.461 327.07H111.02V332.402ZM111.02 340.102H115.625C116.648 340.102 117.48 339.84 118.121 339.316C118.746 338.809 119.059 338.086 119.059 337.148C119.059 336.195 118.762 335.469 118.168 334.969C117.574 334.469 116.727 334.219 115.625 334.219H111.02V340.102ZM138.594 342.211C136.211 342.211 134.387 341.438 133.121 339.891C131.824 338.336 131.176 336.246 131.176 333.621C131.176 330.973 131.824 328.871 133.121 327.316C134.418 325.762 136.242 324.984 138.594 324.984C140.562 324.984 142.137 325.504 143.316 326.543C144.48 327.59 145.145 329.016 145.309 330.82H143.152C143.012 329.641 142.562 328.695 141.805 327.984C141.039 327.297 139.969 326.953 138.594 326.953C137.656 326.953 136.84 327.137 136.145 327.504C135.449 327.871 134.898 328.375 134.492 329.016C134.086 329.656 133.797 330.359 133.625 331.125C133.43 331.93 133.332 332.762 133.332 333.621C133.332 334.504 133.43 335.328 133.625 336.094C133.781 336.844 134.07 337.547 134.492 338.203C134.898 338.844 135.449 339.348 136.145 339.715C136.855 340.09 137.672 340.277 138.594 340.277C141.211 340.277 142.738 339.035 143.176 336.551H145.309C145.074 338.316 144.387 339.699 143.246 340.699C142.121 341.707 140.57 342.211 138.594 342.211ZM156.348 342V325.195H161.914C164.258 325.195 166.098 325.957 167.434 327.48C168.746 328.98 169.402 331.02 169.402 333.598C169.402 336.066 168.762 338.082 167.48 339.645C166.168 341.215 164.312 342 161.914 342H156.348ZM158.434 340.102H161.703C163.523 340.102 164.906 339.488 165.852 338.262C166.781 337.051 167.246 335.496 167.246 333.598C167.246 331.707 166.781 330.156 165.852 328.945C164.914 327.727 163.531 327.117 161.703 327.117H158.434V340.102ZM180.441 342V325.195H191.234V327.117H182.527V332.379H190.496V334.301H182.527V340.102H191.234V342H180.441ZM202.285 342V325.195H212.82V327.117H204.371V332.766H212V334.676H204.371V342H202.285ZM230.234 342.211C227.867 342.211 226.051 341.438 224.785 339.891C223.52 338.367 222.887 336.285 222.887 333.645C222.887 330.988 223.527 328.879 224.809 327.316C226.082 325.762 227.891 324.984 230.234 324.984C232.242 324.984 233.832 325.488 235.004 326.496C236.184 327.535 236.855 328.895 237.02 330.574H234.863C234.746 329.48 234.289 328.602 233.492 327.938C232.68 327.281 231.594 326.953 230.234 326.953C229.297 326.953 228.48 327.137 227.785 327.504C227.09 327.895 226.551 328.406 226.168 329.039C225.77 329.664 225.484 330.367 225.312 331.148C225.133 331.992 225.043 332.824 225.043 333.645C225.043 335.566 225.461 337.145 226.297 338.379C227.109 339.645 228.422 340.277 230.234 340.277C231.859 340.277 233.113 339.789 233.996 338.812C234.879 337.836 235.32 336.586 235.32 335.062H230.715V333.164H237.312V334.582C237.312 336.91 236.688 338.766 235.438 340.148C234.195 341.523 232.461 342.211 230.234 342.211ZM259.086 325.195H261.172V342H259.086V334.301H250.426V342H248.34V325.195H250.426V332.355H259.086V325.195ZM273.184 342V325.195H275.293V342H273.184ZM290.527 342.211C289.004 342.211 287.805 341.75 286.93 340.828C286.047 339.922 285.605 338.711 285.605 337.195H287.727C287.727 338.133 287.973 338.871 288.465 339.41C288.934 339.949 289.637 340.219 290.574 340.219C291.504 340.219 292.211 339.941 292.695 339.387C293.156 338.832 293.387 338.078 293.387 337.125V325.195H295.496V337.125C295.496 338.695 295.059 339.93 294.184 340.828C293.309 341.75 292.09 342.211 290.527 342.211ZM311.984 333.141L319.766 341.766V342H317.246L309.348 333.27V342H307.262V325.195H309.348V333.023L317.023 325.195H319.52V325.441L311.984 333.141ZM329.598 342V325.195H331.684V340.078H339.793V342H329.598ZM349.988 342V325.195H352.461L358.121 335.449H358.215L363.887 325.195H366.301V342H364.309V328.535H364.215L358.262 339.117H358.027L352.074 328.465H351.98V342H349.988ZM378.301 342V325.195H380.574L389.176 338.566H389.27V325.195H391.332V342H389.023L380.434 328.699H380.34V342H378.301ZM415.379 339.82C414.145 341.414 412.289 342.211 409.812 342.211C407.336 342.211 405.48 341.414 404.246 339.82C402.996 338.227 402.371 336.152 402.371 333.598C402.371 331.059 402.996 328.98 404.246 327.363C405.465 325.777 407.32 324.984 409.812 324.984C412.281 324.984 414.137 325.777 415.379 327.363C416.629 328.98 417.254 331.059 417.254 333.598C417.254 336.129 416.629 338.203 415.379 339.82ZM409.812 340.242C411.672 340.242 413.016 339.613 413.844 338.355C414.672 337.105 415.086 335.52 415.086 333.598C415.086 331.684 414.672 330.102 413.844 328.852C413.008 327.586 411.664 326.953 409.812 326.953C408.844 326.953 408.012 327.137 407.316 327.504C406.59 327.871 406.035 328.375 405.652 329.016C405.262 329.664 404.984 330.359 404.82 331.102C404.625 331.906 404.527 332.738 404.527 333.598C404.527 335.48 404.953 337.066 405.805 338.355C406.633 339.613 407.969 340.242 409.812 340.242ZM428.293 342V325.195H434.48C436.184 325.195 437.535 325.684 438.535 326.66C439.527 327.652 440.023 328.934 440.023 330.504C440.023 332.129 439.52 333.434 438.512 334.418C437.496 335.41 436.152 335.906 434.48 335.906H430.379V342H428.293ZM430.379 333.984H434.223C435.371 333.984 436.273 333.68 436.93 333.07C437.555 332.469 437.867 331.613 437.867 330.504C437.867 329.418 437.547 328.578 436.906 327.984C436.266 327.391 435.371 327.094 434.223 327.094H430.379V333.984ZM464.996 333.598C464.996 336.621 464.188 338.895 462.57 340.418L464.82 343.512V343.758H462.547L460.906 341.52C459.938 341.98 458.82 342.211 457.555 342.211C455.078 342.211 453.223 341.414 451.988 339.82C450.738 338.227 450.113 336.152 450.113 333.598C450.113 331.059 450.738 328.98 451.988 327.363C453.207 325.777 455.062 324.984 457.555 324.984C460.023 324.984 461.879 325.777 463.121 327.363C464.371 328.98 464.996 331.059 464.996 333.598ZM457.555 340.242C458.375 340.242 459.086 340.117 459.688 339.867L457.625 337.008V336.773H459.898L461.293 338.684C462.316 337.52 462.828 335.824 462.828 333.598C462.828 331.684 462.414 330.102 461.586 328.852C460.75 327.586 459.406 326.953 457.555 326.953C456.586 326.953 455.754 327.137 455.059 327.504C454.332 327.871 453.777 328.375 453.395 329.016C453.004 329.664 452.727 330.359 452.562 331.102C452.367 331.906 452.27 332.738 452.27 333.598C452.27 335.48 452.695 337.066 453.547 338.355C454.375 339.613 455.711 340.242 457.555 340.242ZM484.391 335.086L488.902 341.766V342H486.617L482.199 335.355H478.121V342H476.035V325.195H482.68C484.344 325.195 485.648 325.668 486.594 326.613C487.539 327.559 488.012 328.766 488.012 330.234C488.012 331.469 487.691 332.504 487.051 333.34C486.402 334.184 485.516 334.766 484.391 335.086ZM478.121 327.117V333.434H482.562C483.617 333.434 484.426 333.152 484.988 332.59C485.543 332.035 485.82 331.262 485.82 330.27C485.82 329.27 485.543 328.492 484.988 327.938C484.418 327.391 483.609 327.117 482.562 327.117H478.121ZM504.465 342.211C502.457 342.211 500.914 341.742 499.836 340.805C498.727 339.859 498.148 338.578 498.102 336.961H500.246C500.316 338.023 500.715 338.848 501.441 339.434C502.152 340.027 503.16 340.324 504.465 340.324C507.199 340.324 508.566 339.348 508.566 337.395C508.566 336.629 508.312 336.027 507.805 335.59C507.297 335.176 506.551 334.863 505.566 334.652L503.117 334.125C501.641 333.812 500.531 333.285 499.789 332.543C499.039 331.816 498.664 330.832 498.664 329.59C498.664 328.168 499.176 327.039 500.199 326.203C501.223 325.391 502.652 324.984 504.488 324.984C506.293 324.984 507.734 325.441 508.812 326.355C509.891 327.293 510.441 328.5 510.465 329.977H508.332C508.285 329.016 507.941 328.262 507.301 327.715C506.668 327.176 505.715 326.906 504.441 326.906C502.043 326.906 500.844 327.801 500.844 329.59C500.844 330.84 501.797 331.672 503.703 332.086L505.977 332.566C509.164 333.215 510.758 334.824 510.758 337.395C510.758 338.902 510.195 340.078 509.07 340.922C507.953 341.781 506.418 342.211 504.465 342.211ZM525.312 342V327.117H520.109V325.195H532.637V327.117H527.422V342H525.312ZM549.207 342.211C547.223 342.211 545.664 341.668 544.531 340.582C543.391 339.488 542.82 337.984 542.82 336.07V325.195H544.906V336.023C544.906 337.359 545.277 338.398 546.02 339.141C546.73 339.914 547.793 340.301 549.207 340.301C550.637 340.301 551.719 339.914 552.453 339.141C553.172 338.398 553.531 337.359 553.531 336.023V325.195H555.641V336.07C555.641 337.992 555.074 339.496 553.941 340.582C552.809 341.668 551.23 342.211 549.207 342.211ZM571.883 342L565.707 325.441V325.195H567.898L572.938 339.188H573.031L578 325.195H580.203V325.441L574.016 342H571.883ZM592.977 342L588.84 325.441V325.195H590.891L594.102 338.73H594.195L597.898 325.195H600.055L603.793 338.73H603.898L607.086 325.195H609.148V325.441L604.977 342H602.855L599.047 328.582H598.953L595.062 342H592.977ZM623.809 342V334.992L617.785 325.441V325.195H620.141L624.852 332.977H624.945L629.621 325.195H631.93V325.441L625.93 334.992V342H623.809ZM640.812 342V340.148L650.457 327.234V327.141H641.023V325.195H653.07V327.094L643.449 339.984V340.078H653.223V342H640.812Z" fill="black"/>
<path d="M88.4727 385.211C87.1914 385.211 86.1602 384.852 85.3789 384.133C84.5898 383.422 84.1953 382.52 84.1953 381.426C84.1953 380.301 84.6211 379.379 85.4727 378.66C86.3242 377.941 87.5898 377.582 89.2695 377.582C90.2695 377.582 91.2773 377.727 92.293 378.016V376.797C92.293 376.07 92.0586 375.461 91.5898 374.969C91.1055 374.484 90.3945 374.242 89.457 374.242C88.5977 374.242 87.9336 374.453 87.4648 374.875C87.0039 375.289 86.7617 375.809 86.7383 376.434H84.8047C84.8047 375.246 85.2422 374.301 86.1172 373.598C86.9922 372.879 88.1055 372.52 89.457 372.52C90.9805 372.52 92.1641 372.918 93.0078 373.715C93.8438 374.504 94.2617 375.512 94.2617 376.738V385H92.5508L92.4102 383.277H92.3164C91.5508 384.566 90.2695 385.211 88.4727 385.211ZM88.8359 383.535C89.8594 383.535 90.6914 383.215 91.332 382.574C91.9727 381.934 92.293 381.156 92.293 380.242V379.621C91.3711 379.332 90.3633 379.188 89.2695 379.188C87.2461 379.188 86.2344 379.926 86.2344 381.402C86.2344 382.043 86.4609 382.555 86.9141 382.938C87.3359 383.336 87.9766 383.535 88.8359 383.535ZM111.336 385.211C109.648 385.211 108.418 384.574 107.645 383.301H107.539L107.281 385H105.523V367.234H107.539V374.441H107.645C108.418 373.16 109.648 372.52 111.336 372.52C113.008 372.52 114.289 373.105 115.18 374.277C116.062 375.441 116.516 376.969 116.539 378.859C116.516 380.852 116.055 382.402 115.156 383.512C114.211 384.645 112.938 385.211 111.336 385.211ZM110.996 383.418C112.199 383.418 113.09 382.992 113.668 382.141C114.223 381.289 114.5 380.195 114.5 378.859C114.5 377.531 114.223 376.441 113.668 375.59C113.098 374.746 112.207 374.324 110.996 374.324C109.848 374.324 108.977 374.746 108.383 375.59C107.789 376.449 107.492 377.539 107.492 378.859C107.492 380.172 107.789 381.258 108.383 382.117C108.977 382.984 109.848 383.418 110.996 383.418ZM131.703 385.211C129.891 385.211 128.512 384.645 127.566 383.512C126.605 382.387 126.125 380.844 126.125 378.883C126.125 376.922 126.605 375.367 127.566 374.219C128.512 373.086 129.879 372.52 131.668 372.52C133.254 372.52 134.465 372.926 135.301 373.738C136.152 374.566 136.625 375.633 136.719 376.938H134.703C134.633 376.109 134.336 375.469 133.812 375.016C133.258 374.555 132.543 374.324 131.668 374.324C130.449 374.324 129.57 374.738 129.031 375.566C128.453 376.418 128.164 377.523 128.164 378.883C128.164 380.234 128.453 381.336 129.031 382.188C129.578 383.023 130.457 383.441 131.668 383.441C132.598 383.441 133.32 383.219 133.836 382.773C134.375 382.305 134.68 381.672 134.75 380.875H136.766C136.648 382.195 136.16 383.25 135.301 384.039C134.473 384.82 133.273 385.211 131.703 385.211ZM151.566 385.211C149.957 385.211 148.691 384.645 147.77 383.512C146.848 382.402 146.375 380.852 146.352 378.859C146.375 376.977 146.832 375.449 147.723 374.277C148.613 373.105 149.895 372.52 151.566 372.52C153.254 372.52 154.484 373.16 155.258 374.441H155.352V367.234H157.367V385H155.621L155.352 383.301H155.258C154.484 384.574 153.254 385.211 151.566 385.211ZM151.895 383.418C153.043 383.418 153.918 382.984 154.52 382.117C155.105 381.266 155.398 380.18 155.398 378.859C155.398 377.531 155.105 376.441 154.52 375.59C153.918 374.746 153.043 374.324 151.895 374.324C150.684 374.324 149.805 374.746 149.258 375.59C148.68 376.441 148.391 377.531 148.391 378.859C148.391 380.195 148.68 381.289 149.258 382.141C149.812 382.992 150.691 383.418 151.895 383.418ZM173.258 385.211C171.508 385.211 170.137 384.621 169.145 383.441C168.168 382.277 167.68 380.758 167.68 378.883C167.68 377.008 168.152 375.48 169.098 374.301C170.051 373.113 171.426 372.52 173.223 372.52C174.895 372.52 176.199 373.07 177.137 374.172C178.066 375.289 178.531 376.73 178.531 378.496V379.48H169.801C169.801 380.707 170.094 381.66 170.68 382.34C171.281 383.059 172.141 383.418 173.258 383.418C174.07 383.418 174.75 383.25 175.297 382.914C175.836 382.578 176.188 382.09 176.352 381.449H178.367C178.203 382.559 177.641 383.461 176.68 384.156C175.703 384.859 174.562 385.211 173.258 385.211ZM169.824 377.805H176.445C176.445 376.766 176.172 375.926 175.625 375.285C175.078 374.645 174.277 374.324 173.223 374.324C172.129 374.324 171.297 374.645 170.727 375.285C170.148 375.934 169.848 376.773 169.824 377.805ZM189.852 385V374.418H187.66V372.73H189.852V370.598C189.852 369.535 190.18 368.664 190.836 367.984C191.492 367.328 192.355 367 193.426 367C193.98 367 194.492 367.055 194.961 367.164V368.852C194.461 368.766 194.062 368.723 193.766 368.723C193.156 368.723 192.691 368.883 192.371 369.203C192.035 369.539 191.867 370.004 191.867 370.598V372.73H194.844V374.418H191.867V385H189.852ZM209.797 390.707C208.242 390.707 206.992 390.316 206.047 389.535C205.078 388.73 204.582 387.738 204.559 386.559H206.504C206.551 387.23 206.855 387.801 207.418 388.27C207.965 388.746 208.758 388.984 209.797 388.984C210.914 388.984 211.762 388.672 212.34 388.047C212.91 387.453 213.195 386.66 213.195 385.668V383.301H213.102C212.328 384.574 211.098 385.211 209.41 385.211C207.73 385.211 206.449 384.629 205.566 383.465C204.676 382.293 204.219 380.766 204.195 378.883C204.219 376.867 204.691 375.305 205.613 374.195C206.52 373.078 207.785 372.52 209.41 372.52C211.098 372.52 212.328 373.16 213.102 374.441H213.195L213.465 372.73H215.211V385.715C215.211 387.176 214.734 388.371 213.781 389.301C212.82 390.238 211.492 390.707 209.797 390.707ZM209.738 383.418C210.887 383.418 211.762 382.984 212.363 382.117C212.949 381.289 213.242 380.211 213.242 378.883C213.242 377.555 212.949 376.465 212.363 375.613C211.77 374.754 210.895 374.324 209.738 374.324C208.527 374.324 207.648 374.746 207.102 375.59C206.523 376.441 206.234 377.539 206.234 378.883C206.234 380.203 206.523 381.289 207.102 382.141C207.656 382.992 208.535 383.418 209.738 383.418ZM226.484 385V367.234H228.5V374.652H228.605C229.348 373.23 230.594 372.52 232.344 372.52C233.695 372.52 234.758 372.918 235.531 373.715C236.305 374.512 236.691 375.617 236.691 377.031V385H234.676V377.348C234.676 375.332 233.715 374.324 231.793 374.324C230.801 374.324 230 374.676 229.391 375.379C228.797 376.066 228.5 377.035 228.5 378.285V385H226.484ZM248.961 370.387C248.039 370.387 247.578 369.914 247.578 368.969C247.578 368.039 248.039 367.574 248.961 367.574C249.406 367.574 249.75 367.695 249.992 367.938C250.234 368.219 250.355 368.562 250.355 368.969C250.355 369.375 250.234 369.719 249.992 370C249.766 370.258 249.422 370.387 248.961 370.387ZM247.953 385V372.73H249.969V385H247.953ZM262.59 370.387C261.66 370.387 261.195 369.914 261.195 368.969C261.195 368.039 261.66 367.574 262.59 367.574C263.035 367.574 263.379 367.695 263.621 367.938C263.863 368.219 263.984 368.562 263.984 368.969C263.984 369.375 263.863 369.719 263.621 370C263.395 370.258 263.051 370.387 262.59 370.387ZM260.047 390.707C259.75 390.707 259.43 390.66 259.086 390.566V388.867C259.398 388.914 259.703 388.938 260 388.938C261.055 388.938 261.582 388.352 261.582 387.18V372.73H263.598V387.156C263.598 388.336 263.309 389.227 262.73 389.828C262.168 390.414 261.273 390.707 260.047 390.707ZM274.859 367.234H276.875V385H274.859V367.234ZM279.477 378.109L284.586 384.766V385H282.254L276.875 378.109L282.066 372.73H284.434V372.977L279.477 378.109ZM294.406 385V367.234H296.422V385H294.406ZM321.137 372.52C322.473 372.52 323.512 372.918 324.254 373.715C324.996 374.543 325.367 375.648 325.367 377.031V385H323.352V377.348C323.352 375.332 322.445 374.324 320.633 374.324C319.68 374.324 318.93 374.668 318.383 375.355C317.836 376.043 317.562 377 317.562 378.227V385H315.547V377.348C315.547 375.332 314.645 374.324 312.84 374.324C311.863 374.324 311.102 374.668 310.555 375.355C309.992 376.059 309.711 377.016 309.711 378.227V385H307.695V372.73H309.453L309.617 374.652H309.711C310.453 373.23 311.68 372.52 313.391 372.52C315.156 372.52 316.387 373.23 317.082 374.652H317.176C317.918 373.23 319.238 372.52 321.137 372.52ZM336.641 385V372.73H338.398L338.562 374.652H338.656C339.398 373.23 340.664 372.52 342.453 372.52C343.789 372.52 344.844 372.918 345.617 373.715C346.375 374.535 346.754 375.641 346.754 377.031V385H344.727V377.348C344.727 375.332 343.785 374.324 341.902 374.324C340.863 374.324 340.07 374.668 339.523 375.355C338.945 376.051 338.656 377.008 338.656 378.227V385H336.641ZM362.598 385.211C360.777 385.211 359.395 384.621 358.449 383.441C357.52 382.277 357.055 380.758 357.055 378.883C357.055 377.008 357.527 375.48 358.473 374.301C359.426 373.113 360.801 372.52 362.598 372.52C364.402 372.52 365.781 373.113 366.734 374.301C367.68 375.48 368.152 377.008 368.152 378.883C368.152 380.758 367.688 382.277 366.758 383.441C365.812 384.621 364.426 385.211 362.598 385.211ZM362.598 383.418C363.809 383.418 364.699 383.008 365.27 382.188C365.824 381.359 366.102 380.258 366.102 378.883C366.102 377.508 365.824 376.395 365.27 375.543C364.699 374.73 363.809 374.324 362.598 374.324C361.41 374.324 360.531 374.73 359.961 375.543C359.383 376.395 359.094 377.508 359.094 378.883C359.094 380.258 359.383 381.359 359.961 382.188C360.539 383.008 361.418 383.418 362.598 383.418ZM378.688 390.496V372.73H380.445L380.703 374.441H380.809C381.582 373.16 382.812 372.52 384.5 372.52C386.117 372.52 387.391 373.078 388.32 374.195C389.219 375.297 389.68 376.859 389.703 378.883C389.68 380.773 389.227 382.301 388.344 383.465C387.461 384.629 386.18 385.211 384.5 385.211C382.812 385.211 381.582 384.574 380.809 383.301H380.703V390.496H378.688ZM384.16 383.418C385.363 383.418 386.254 382.992 386.832 382.141C387.387 381.289 387.664 380.203 387.664 378.883C387.664 377.539 387.387 376.441 386.832 375.59C386.262 374.746 385.371 374.324 384.16 374.324C383.012 374.324 382.141 374.754 381.547 375.613C380.953 376.473 380.656 377.562 380.656 378.883C380.656 380.203 380.953 381.281 381.547 382.117C382.141 382.984 383.012 383.418 384.16 383.418ZM408.289 390.496V383.301H408.195C407.422 384.574 406.191 385.211 404.504 385.211C402.824 385.211 401.543 384.629 400.66 383.465C399.77 382.293 399.312 380.766 399.289 378.883C399.312 376.867 399.785 375.305 400.707 374.195C401.613 373.078 402.879 372.52 404.504 372.52C406.191 372.52 407.422 373.16 408.195 374.441H408.289L408.559 372.73H410.305V390.496H408.289ZM404.832 383.418C405.98 383.418 406.855 382.984 407.457 382.117C408.043 381.289 408.336 380.211 408.336 378.883C408.336 377.555 408.043 376.465 407.457 375.613C406.863 374.754 405.988 374.324 404.832 374.324C403.621 374.324 402.742 374.746 402.195 375.59C401.617 376.441 401.328 377.539 401.328 378.883C401.328 380.203 401.617 381.289 402.195 382.141C402.75 382.992 403.629 383.418 404.832 383.418ZM421.578 385V372.73H423.336L423.5 374.805H423.594C423.859 374.117 424.277 373.57 424.848 373.164C425.418 372.781 426.082 372.59 426.84 372.59H427.941V374.535H426.98C424.723 374.535 423.594 376.039 423.594 379.047V385H421.578ZM442.18 385.211C440.703 385.211 439.512 384.828 438.605 384.062C437.668 383.328 437.188 382.289 437.164 380.945H439.18C439.18 381.758 439.453 382.367 440 382.773C440.547 383.203 441.273 383.418 442.18 383.418C444.055 383.418 444.992 382.832 444.992 381.66C444.992 380.77 444.367 380.188 443.117 379.914L440.668 379.457C439.652 379.246 438.887 378.848 438.371 378.262C437.824 377.668 437.551 376.922 437.551 376.023C437.551 374.992 437.961 374.152 438.781 373.504C439.617 372.848 440.695 372.52 442.016 372.52C443.391 372.52 444.527 372.879 445.426 373.598C446.309 374.309 446.75 375.27 446.75 376.48H444.781C444.758 375.738 444.492 375.172 443.984 374.781C443.461 374.406 442.805 374.219 442.016 374.219C441.234 374.219 440.625 374.371 440.188 374.676C439.727 374.996 439.496 375.445 439.496 376.023C439.496 376.969 440.207 377.547 441.629 377.758L443.551 378.109C444.754 378.383 445.633 378.785 446.188 379.316C446.75 379.879 447.031 380.66 447.031 381.66C447.031 382.754 446.566 383.621 445.637 384.262C444.715 384.895 443.562 385.211 442.18 385.211ZM461.656 385.211C460.5 385.211 459.668 384.934 459.16 384.379C458.668 383.84 458.422 383.023 458.422 381.93V374.441H456.383V372.73H458.469V370.117L460.203 369.449H460.438V372.73H463.438V374.441H460.438V381.766C460.438 382.352 460.566 382.773 460.824 383.031C461.098 383.305 461.504 383.441 462.043 383.441C462.488 383.441 462.891 383.395 463.25 383.301H463.484V385.023C462.945 385.148 462.336 385.211 461.656 385.211ZM481.695 372.73H483.711V380.535C483.711 381.941 483.246 383.062 482.316 383.898C481.387 384.758 480.18 385.188 478.695 385.188C477.211 385.188 476.004 384.758 475.074 383.898C474.145 383.062 473.68 381.941 473.68 380.535V372.73H475.695V380.195C475.695 382.328 476.695 383.395 478.695 383.395C480.695 383.395 481.695 382.328 481.695 380.195V372.73ZM498.137 385L493.309 372.977V372.73H495.395L499.168 382.645H499.262L502.883 372.73H504.969V372.977L500.223 385H498.137ZM516.617 385L513.137 372.977V372.73H515.223L517.672 382.27H517.766L520.648 372.73H522.711L525.594 382.27H525.688L528.137 372.73H530.176V372.977L526.719 385H524.633L521.75 375.473H521.656L518.703 385H516.617ZM541.191 390.496V390.262L543.277 384.906L543.254 384.859L538.332 372.977V372.73H540.488L544.215 382.363H544.309L547.906 372.73H550.016V372.977L543.23 390.496H541.191ZM559.027 385V383.348L566.012 374.535V374.441H559.051V372.73H568.379V374.418L561.418 383.195V383.301H568.426V385H559.027Z" fill="black"/>
<path d="M96.3945 418.551C96.3945 424.324 94.4414 427.211 90.5352 427.211C86.6289 427.211 84.6758 424.324 84.6758 418.551C84.6758 412.793 86.6289 409.914 90.5352 409.914C94.4414 409.914 96.3945 412.793 96.3945 418.551ZM88.6602 424.844C89.168 425.211 89.793 425.395 90.5352 425.395C91.2773 425.395 91.9023 425.211 92.4102 424.844C92.9258 424.469 93.3164 423.965 93.582 423.332C93.8164 422.77 94 422.055 94.1328 421.188C94.25 420.414 94.3086 419.535 94.3086 418.551C94.3086 414.004 93.0508 411.73 90.5352 411.73C88.0273 411.73 86.7734 414.004 86.7734 418.551C86.7734 419.59 86.8281 420.469 86.9375 421.188C87.0625 421.992 87.2539 422.707 87.5117 423.332C87.7852 423.988 88.168 424.492 88.6602 424.844ZM110.785 427V412.48H110.691L106.824 415.504H106.59V413.441L110.762 410.195H112.824V427H110.785ZM124.262 427V425.418L130.004 418.715C130.855 417.707 131.336 417.133 131.445 416.992C131.695 416.672 131.918 416.289 132.113 415.844C132.301 415.438 132.395 414.996 132.395 414.52C132.395 413.668 132.141 412.988 131.633 412.48C131.133 411.98 130.387 411.73 129.395 411.73C128.41 411.73 127.645 412.004 127.098 412.551C126.535 413.113 126.254 413.898 126.254 414.906H124.215C124.215 413.422 124.68 412.215 125.609 411.285C126.523 410.371 127.785 409.914 129.395 409.914C130.941 409.914 132.184 410.336 133.121 411.18C134.035 412.047 134.492 413.137 134.492 414.449C134.492 415.316 134.273 416.109 133.836 416.828C133.391 417.547 132.574 418.602 131.387 419.992L127.051 425.031V425.125H134.75V427H124.262ZM150.734 427.211C149.055 427.211 147.711 426.766 146.703 425.875C145.695 424.984 145.191 423.809 145.191 422.348H147.207C147.23 423.238 147.543 423.973 148.145 424.551C148.746 425.129 149.602 425.418 150.711 425.418C151.828 425.418 152.688 425.129 153.289 424.551C153.891 423.996 154.191 423.246 154.191 422.301C154.191 421.293 153.871 420.516 153.23 419.969C152.59 419.422 151.672 419.148 150.477 419.148H149.012V417.355H150.43C151.398 417.355 152.184 417.09 152.785 416.559C153.371 416.043 153.664 415.348 153.664 414.473C153.664 413.637 153.418 412.973 152.926 412.48C152.41 411.965 151.656 411.707 150.664 411.707C149.656 411.707 148.875 411.973 148.32 412.504C147.766 413.035 147.477 413.746 147.453 414.637H145.414C145.484 413.16 145.988 412 146.926 411.156C147.848 410.328 149.117 409.914 150.734 409.914C152.219 409.914 153.43 410.312 154.367 411.109C155.312 411.938 155.785 413.012 155.785 414.332C155.785 416.129 154.941 417.352 153.254 418V418.094C154.246 418.414 155 418.934 155.516 419.652C156.047 420.395 156.312 421.27 156.312 422.277C156.312 423.715 155.824 424.898 154.848 425.828C153.879 426.75 152.508 427.211 150.734 427.211ZM173.902 427V423.449H166.25V421.34L173.047 410.195H175.953V421.621H178.203V423.449H175.953V427H173.902ZM168.219 421.621H173.902V412.234H173.809L168.219 421.527V421.621ZM193.578 427.211C191.898 427.211 190.555 426.742 189.547 425.805C188.539 424.867 188.035 423.68 188.035 422.242H190.074C190.074 423.133 190.387 423.879 191.012 424.48C191.645 425.09 192.5 425.395 193.578 425.395C194.805 425.395 195.703 425.051 196.273 424.363C196.828 423.668 197.105 422.738 197.105 421.574C197.105 420.457 196.82 419.555 196.25 418.867C195.656 418.18 194.773 417.836 193.602 417.836C192.289 417.836 191.234 418.387 190.438 419.488H188.328L188.973 410.195H198.383V412.047H190.754L190.367 417.402H190.461C191.305 416.488 192.457 416.031 193.918 416.031C195.559 416.031 196.848 416.535 197.785 417.543C198.707 418.559 199.168 419.879 199.168 421.504C199.168 423.238 198.699 424.621 197.762 425.652C196.793 426.691 195.398 427.211 193.578 427.211ZM215.527 427.211C213.473 427.211 211.977 426.453 211.039 424.938C210.078 423.422 209.598 421.398 209.598 418.867C209.598 417.703 209.711 416.566 209.938 415.457C210.133 414.496 210.477 413.551 210.969 412.621C211.43 411.77 212.078 411.105 212.914 410.629C213.727 410.152 214.68 409.914 215.773 409.914C217.234 409.914 218.426 410.305 219.348 411.086C220.27 411.867 220.812 412.926 220.977 414.262H218.891C218.82 413.52 218.5 412.91 217.93 412.434C217.367 411.988 216.648 411.766 215.773 411.766C214.328 411.766 213.285 412.371 212.645 413.582C211.973 414.809 211.637 416.395 211.637 418.34H211.742C212.562 416.801 213.922 416.031 215.82 416.031C217.477 416.031 218.789 416.551 219.758 417.59C220.695 418.645 221.164 419.965 221.164 421.551C221.164 423.176 220.66 424.527 219.652 425.605C218.629 426.676 217.254 427.211 215.527 427.211ZM215.551 425.395C216.652 425.395 217.516 425.035 218.141 424.316C218.766 423.598 219.078 422.691 219.078 421.598C219.078 420.496 218.773 419.594 218.164 418.891C217.531 418.188 216.66 417.836 215.551 417.836C214.402 417.836 213.531 418.18 212.938 418.867C212.312 419.562 212 420.465 212 421.574C212 422.676 212.32 423.582 212.961 424.293C213.578 425.027 214.441 425.395 215.551 425.395ZM232.812 427V426.766C234.023 421.695 236.367 416.836 239.844 412.188V412.094H231.125V410.195H241.953V412.211C238.445 416.938 236.07 421.867 234.828 427H232.812ZM260.258 418.141C262.164 418.859 263.117 420.27 263.117 422.371C263.117 423.879 262.613 425.055 261.605 425.898C260.613 426.75 259.227 427.188 257.445 427.211C255.672 427.188 254.289 426.75 253.297 425.898C252.289 425.055 251.785 423.879 251.785 422.371C251.785 420.27 252.738 418.859 254.645 418.141V418.047C253.074 417.352 252.289 416.121 252.289 414.355C252.289 412.98 252.754 411.898 253.684 411.109C254.574 410.336 255.828 409.938 257.445 409.914C259.07 409.938 260.336 410.336 261.242 411.109C262.156 411.906 262.613 412.988 262.613 414.355C262.613 416.121 261.828 417.352 260.258 418.047V418.141ZM255.148 412.457C254.617 412.965 254.352 413.629 254.352 414.449C254.352 415.27 254.625 415.941 255.172 416.465C255.695 416.988 256.453 417.262 257.445 417.285C258.438 417.262 259.207 416.988 259.754 416.465C260.285 415.934 260.551 415.262 260.551 414.449C260.551 413.629 260.285 412.965 259.754 412.457C259.238 411.965 258.469 411.707 257.445 411.684C256.43 411.707 255.664 411.965 255.148 412.457ZM257.445 425.441C258.648 425.418 259.547 425.121 260.141 424.551C260.734 423.98 261.031 423.203 261.031 422.219C261.031 421.281 260.742 420.523 260.164 419.945C259.57 419.375 258.664 419.078 257.445 419.055C256.227 419.078 255.332 419.375 254.762 419.945C254.168 420.516 253.871 421.273 253.871 422.219C253.871 423.203 254.168 423.98 254.762 424.551C255.355 425.121 256.25 425.418 257.445 425.441ZM278.938 427.211C277.508 427.211 276.324 426.812 275.387 426.016C274.449 425.219 273.898 424.172 273.734 422.875H275.82C275.891 423.617 276.219 424.223 276.805 424.691C277.352 425.145 278.062 425.371 278.938 425.371C280.352 425.371 281.398 424.754 282.078 423.52C282.734 422.277 283.062 420.703 283.062 418.797H282.969C282.148 420.328 280.789 421.094 278.891 421.094C277.219 421.094 275.914 420.566 274.977 419.512C274.016 418.48 273.535 417.168 273.535 415.574C273.535 413.941 274.047 412.59 275.07 411.52C276.07 410.449 277.441 409.914 279.184 409.914C281.238 409.914 282.742 410.664 283.695 412.164C284.633 413.68 285.102 415.715 285.102 418.27C285.102 419.449 284.992 420.574 284.773 421.645C284.57 422.645 284.227 423.59 283.742 424.48C283.289 425.34 282.648 426.012 281.82 426.496C280.984 426.973 280.023 427.211 278.938 427.211ZM276.559 418.234C277.176 418.945 278.043 419.301 279.16 419.301C280.277 419.301 281.156 418.945 281.797 418.234C282.406 417.531 282.711 416.637 282.711 415.551C282.711 414.473 282.398 413.562 281.773 412.82C281.117 412.094 280.246 411.73 279.16 411.73C278.059 411.73 277.191 412.094 276.559 412.82C275.941 413.531 275.633 414.434 275.633 415.527C275.633 416.645 275.941 417.547 276.559 418.234Z" fill="black"/>
<circle cx="188" cy="557" r="48" fill="#000C05"/>
<path d="M161.272 625.688H159.208L158.456 628.824H160.6V629.688H158.248L157.448 633H156.52L157.336 629.688H154.312L153.512 633H152.584L153.4 629.688H151.592V628.824H153.608L154.36 625.688H152.28V624.872H154.568L155.352 621.64H156.28L155.48 624.872H158.504L159.288 621.64H160.216L159.416 624.872H161.272V625.688ZM157.544 628.824L158.296 625.688H155.272L154.52 628.824H157.544ZM170.787 628.312C170.787 629.251 170.611 630.088 170.259 630.824C169.918 631.549 169.443 632.12 168.835 632.536C168.227 632.952 167.539 633.16 166.771 633.16C166.003 633.16 165.315 632.952 164.707 632.536C164.11 632.12 163.635 631.549 163.283 630.824C162.931 630.088 162.755 629.251 162.755 628.312C162.755 627.373 162.931 626.541 163.283 625.816C163.635 625.08 164.11 624.504 164.707 624.088C165.315 623.661 166.003 623.448 166.771 623.448C167.539 623.448 168.227 623.661 168.835 624.088C169.443 624.504 169.918 625.08 170.259 625.816C170.611 626.541 170.787 627.373 170.787 628.312ZM169.683 628.312C169.683 627.555 169.56 626.888 169.315 626.312C169.07 625.736 168.728 625.288 168.291 624.968C167.854 624.637 167.347 624.472 166.771 624.472C166.195 624.472 165.688 624.637 165.251 624.968C164.814 625.288 164.467 625.736 164.211 626.312C163.966 626.888 163.843 627.555 163.843 628.312C163.843 629.069 163.966 629.736 164.211 630.312C164.467 630.888 164.814 631.336 165.251 631.656C165.688 631.976 166.195 632.136 166.771 632.136C167.347 632.136 167.854 631.976 168.291 631.656C168.728 631.325 169.07 630.877 169.315 630.312C169.56 629.736 169.683 629.069 169.683 628.312ZM180.584 628.312C180.584 629.251 180.408 630.088 180.056 630.824C179.715 631.549 179.24 632.12 178.632 632.536C178.024 632.952 177.336 633.16 176.568 633.16C175.8 633.16 175.112 632.952 174.504 632.536C173.907 632.12 173.432 631.549 173.08 630.824C172.728 630.088 172.552 629.251 172.552 628.312C172.552 627.373 172.728 626.541 173.08 625.816C173.432 625.08 173.907 624.504 174.504 624.088C175.112 623.661 175.8 623.448 176.568 623.448C177.336 623.448 178.024 623.661 178.632 624.088C179.24 624.504 179.715 625.08 180.056 625.816C180.408 626.541 180.584 627.373 180.584 628.312ZM179.48 628.312C179.48 627.555 179.357 626.888 179.112 626.312C178.867 625.736 178.525 625.288 178.088 624.968C177.651 624.637 177.144 624.472 176.568 624.472C175.992 624.472 175.485 624.637 175.048 624.968C174.611 625.288 174.264 625.736 174.008 626.312C173.763 626.888 173.64 627.555 173.64 628.312C173.64 629.069 173.763 629.736 174.008 630.312C174.264 630.888 174.611 631.336 175.048 631.656C175.485 631.976 175.992 632.136 176.568 632.136C177.144 632.136 177.651 631.976 178.088 631.656C178.525 631.325 178.867 630.877 179.112 630.312C179.357 629.736 179.48 629.069 179.48 628.312ZM190.381 628.312C190.381 629.251 190.205 630.088 189.853 630.824C189.511 631.549 189.037 632.12 188.429 632.536C187.821 632.952 187.133 633.16 186.365 633.16C185.597 633.16 184.909 632.952 184.301 632.536C183.703 632.12 183.229 631.549 182.877 630.824C182.525 630.088 182.349 629.251 182.349 628.312C182.349 627.373 182.525 626.541 182.877 625.816C183.229 625.08 183.703 624.504 184.301 624.088C184.909 623.661 185.597 623.448 186.365 623.448C187.133 623.448 187.821 623.661 188.429 624.088C189.037 624.504 189.511 625.08 189.853 625.816C190.205 626.541 190.381 627.373 190.381 628.312ZM189.277 628.312C189.277 627.555 189.154 626.888 188.909 626.312C188.663 625.736 188.322 625.288 187.885 624.968C187.447 624.637 186.941 624.472 186.365 624.472C185.789 624.472 185.282 624.637 184.845 624.968C184.407 625.288 184.061 625.736 183.805 626.312C183.559 626.888 183.437 627.555 183.437 628.312C183.437 629.069 183.559 629.736 183.805 630.312C184.061 630.888 184.407 631.336 184.845 631.656C185.282 631.976 185.789 632.136 186.365 632.136C186.941 632.136 187.447 631.976 187.885 631.656C188.322 631.325 188.663 630.877 188.909 630.312C189.154 629.736 189.277 629.069 189.277 628.312ZM191.938 627.24C191.938 626.547 192.055 625.869 192.29 625.208C192.535 624.536 192.887 623.928 193.346 623.384C193.804 622.829 194.37 622.392 195.042 622.072C195.714 621.741 196.476 621.576 197.33 621.576C198.343 621.576 199.207 621.811 199.922 622.28C200.647 622.739 201.18 623.331 201.522 624.056L200.642 624.6C200.396 624.099 200.087 623.704 199.714 623.416C199.34 623.117 198.94 622.904 198.514 622.776C198.098 622.648 197.682 622.584 197.266 622.584C196.583 622.584 195.98 622.723 195.458 623C194.935 623.267 194.492 623.629 194.13 624.088C193.778 624.536 193.511 625.043 193.33 625.608C193.148 626.163 193.058 626.728 193.058 627.304C193.058 627.933 193.164 628.536 193.378 629.112C193.591 629.688 193.89 630.2 194.274 630.648C194.658 631.085 195.106 631.437 195.618 631.704C196.14 631.96 196.706 632.088 197.314 632.088C197.74 632.088 198.178 632.013 198.626 631.864C199.074 631.715 199.49 631.485 199.874 631.176C200.268 630.867 200.583 630.467 200.818 629.976L201.746 630.456C201.511 631.021 201.148 631.501 200.658 631.896C200.167 632.291 199.618 632.589 199.01 632.792C198.412 632.995 197.826 633.096 197.25 633.096C196.471 633.096 195.756 632.931 195.106 632.6C194.455 632.259 193.89 631.811 193.41 631.256C192.94 630.691 192.578 630.061 192.322 629.368C192.066 628.664 191.938 627.955 191.938 627.24ZM211.146 628.312C211.146 629.251 210.97 630.088 210.618 630.824C210.277 631.549 209.802 632.12 209.194 632.536C208.586 632.952 207.898 633.16 207.13 633.16C206.362 633.16 205.674 632.952 205.066 632.536C204.469 632.12 203.994 631.549 203.642 630.824C203.29 630.088 203.114 629.251 203.114 628.312C203.114 627.373 203.29 626.541 203.642 625.816C203.994 625.08 204.469 624.504 205.066 624.088C205.674 623.661 206.362 623.448 207.13 623.448C207.898 623.448 208.586 623.661 209.194 624.088C209.802 624.504 210.277 625.08 210.618 625.816C210.97 626.541 211.146 627.373 211.146 628.312ZM210.042 628.312C210.042 627.555 209.92 626.888 209.674 626.312C209.429 625.736 209.088 625.288 208.65 624.968C208.213 624.637 207.706 624.472 207.13 624.472C206.554 624.472 206.048 624.637 205.61 624.968C205.173 625.288 204.826 625.736 204.57 626.312C204.325 626.888 204.202 627.555 204.202 628.312C204.202 629.069 204.325 629.736 204.57 630.312C204.826 630.888 205.173 631.336 205.61 631.656C206.048 631.976 206.554 632.136 207.13 632.136C207.706 632.136 208.213 631.976 208.65 631.656C209.088 631.325 209.429 630.877 209.674 630.312C209.92 629.736 210.042 629.069 210.042 628.312ZM216.223 635.384C215.423 635.384 214.698 635.181 214.047 634.776C213.397 634.381 212.911 633.859 212.591 633.208L213.311 632.664C213.61 633.187 214.015 633.608 214.527 633.928C215.05 634.248 215.621 634.408 216.239 634.408C216.773 634.408 217.247 634.291 217.663 634.056C218.09 633.821 218.426 633.496 218.671 633.08C218.927 632.664 219.055 632.184 219.055 631.64C219.055 631.117 218.933 630.659 218.687 630.264C218.453 629.859 218.127 629.544 217.711 629.32C217.306 629.096 216.847 628.984 216.335 628.984C215.845 628.984 215.375 629.096 214.927 629.32C214.479 629.533 214.117 629.848 213.839 630.264H212.831L214.095 623.864H219.583V624.872H214.911L214.127 628.952C214.405 628.653 214.746 628.424 215.151 628.264C215.557 628.093 215.994 628.008 216.463 628.008C217.157 628.008 217.781 628.163 218.335 628.472C218.901 628.781 219.349 629.208 219.679 629.752C220.01 630.296 220.175 630.92 220.175 631.624C220.175 632.371 219.994 633.027 219.631 633.592C219.279 634.157 218.805 634.595 218.207 634.904C217.61 635.224 216.949 635.384 216.223 635.384Z" fill="#7C7C7C"/>
<circle cx="372" cy="558" r="48" fill="#FE6E26"/>
<path d="M347.272 625.688H345.208L344.456 628.824H346.6V629.688H344.248L343.448 633H342.52L343.336 629.688H340.312L339.512 633H338.584L339.4 629.688H337.592V628.824H339.608L340.36 625.688H338.28V624.872H340.568L341.352 621.64H342.28L341.48 624.872H344.504L345.288 621.64H346.216L345.416 624.872H347.272V625.688ZM343.544 628.824L344.296 625.688H341.272L340.52 628.824H343.544ZM349.299 633V621.64H356.755V622.632H350.419V626.808H355.763V627.736H350.419V633H349.299ZM366.353 632.008V633H358.721V621.64H366.209V622.632H359.841V626.728H365.393V627.672H359.841V632.008H366.353ZM375.991 629.256C375.991 629.971 375.81 630.627 375.447 631.224C375.095 631.811 374.615 632.28 374.007 632.632C373.399 632.984 372.716 633.16 371.959 633.16C371.17 633.16 370.466 632.973 369.847 632.6C369.239 632.216 368.759 631.667 368.407 630.952C368.055 630.237 367.879 629.389 367.879 628.408C367.879 626.861 368.055 625.587 368.407 624.584C368.759 623.571 369.25 622.813 369.879 622.312C370.508 621.811 371.239 621.56 372.071 621.56C372.828 621.56 373.506 621.752 374.103 622.136C374.7 622.509 375.154 623.021 375.463 623.672L374.759 624.312C374.535 623.768 374.178 623.336 373.687 623.016C373.207 622.685 372.668 622.52 372.071 622.52C371.442 622.52 370.892 622.717 370.423 623.112C369.954 623.507 369.586 624.072 369.319 624.808C369.063 625.544 368.935 626.435 368.935 627.48C369.095 627.064 369.33 626.701 369.639 626.392C369.948 626.083 370.311 625.843 370.727 625.672C371.154 625.501 371.607 625.416 372.087 625.416C372.812 625.416 373.468 625.587 374.055 625.928C374.652 626.269 375.122 626.733 375.463 627.32C375.815 627.896 375.991 628.541 375.991 629.256ZM371.991 632.2C372.524 632.2 373.015 632.067 373.463 631.8C373.911 631.533 374.268 631.176 374.535 630.728C374.812 630.28 374.951 629.789 374.951 629.256C374.951 628.723 374.812 628.232 374.535 627.784C374.268 627.336 373.911 626.979 373.463 626.712C373.015 626.445 372.524 626.312 371.991 626.312C371.447 626.312 370.946 626.445 370.487 626.712C370.039 626.979 369.682 627.336 369.415 627.784C369.148 628.221 369.015 628.712 369.015 629.256C369.015 629.789 369.148 630.28 369.415 630.728C369.692 631.176 370.055 631.533 370.503 631.8C370.951 632.067 371.447 632.2 371.991 632.2ZM385.744 632.008V633H378.112V621.64H385.6V622.632H379.232V626.728H384.784V627.672H379.232V632.008H385.744ZM387.142 633C387.142 632.637 387.174 632.275 387.238 631.912C387.302 631.539 387.424 631.171 387.606 630.808C387.787 630.445 388.054 630.099 388.406 629.768C388.758 629.427 389.222 629.107 389.798 628.808C390.107 628.648 390.427 628.493 390.758 628.344C391.088 628.184 391.398 628.013 391.686 627.832C391.984 627.64 392.219 627.427 392.39 627.192C392.571 626.947 392.662 626.659 392.662 626.328C392.662 626.061 392.582 625.8 392.422 625.544C392.272 625.288 392.038 625.08 391.718 624.92C391.408 624.76 391.019 624.68 390.549 624.68C390.208 624.68 389.899 624.728 389.622 624.824C389.344 624.92 389.099 625.043 388.886 625.192C388.672 625.331 388.491 625.475 388.342 625.624C388.192 625.763 388.07 625.88 387.974 625.976L387.286 625.224C387.339 625.16 387.456 625.048 387.638 624.888C387.83 624.717 388.07 624.541 388.358 624.36C388.656 624.179 389.003 624.024 389.398 623.896C389.803 623.768 390.246 623.704 390.726 623.704C391.376 623.704 391.931 623.821 392.39 624.056C392.859 624.28 393.216 624.584 393.462 624.968C393.707 625.352 393.83 625.768 393.83 626.216C393.83 626.653 393.734 627.032 393.542 627.352C393.36 627.661 393.12 627.933 392.822 628.168C392.534 628.392 392.23 628.589 391.91 628.76C391.6 628.92 391.318 629.059 391.062 629.176C390.56 629.411 390.139 629.645 389.798 629.88C389.456 630.115 389.184 630.355 388.982 630.6C388.779 630.835 388.619 631.069 388.502 631.304C388.395 631.528 388.32 631.763 388.278 632.008H394.006V633H387.142ZM403.725 629.256C403.725 629.971 403.544 630.627 403.181 631.224C402.829 631.811 402.349 632.28 401.741 632.632C401.133 632.984 400.451 633.16 399.693 633.16C398.904 633.16 398.2 632.973 397.581 632.6C396.973 632.216 396.493 631.667 396.141 630.952C395.789 630.237 395.613 629.389 395.613 628.408C395.613 626.861 395.789 625.587 396.141 624.584C396.493 623.571 396.984 622.813 397.613 622.312C398.243 621.811 398.973 621.56 399.805 621.56C400.563 621.56 401.24 621.752 401.837 622.136C402.435 622.509 402.888 623.021 403.197 623.672L402.493 624.312C402.269 623.768 401.912 623.336 401.421 623.016C400.941 622.685 400.403 622.52 399.805 622.52C399.176 622.52 398.627 622.717 398.157 623.112C397.688 623.507 397.32 624.072 397.053 624.808C396.797 625.544 396.669 626.435 396.669 627.48C396.829 627.064 397.064 626.701 397.373 626.392C397.683 626.083 398.045 625.843 398.461 625.672C398.888 625.501 399.341 625.416 399.821 625.416C400.547 625.416 401.203 625.587 401.789 625.928C402.387 626.269 402.856 626.733 403.197 627.32C403.549 627.896 403.725 628.541 403.725 629.256ZM399.725 632.2C400.259 632.2 400.749 632.067 401.197 631.8C401.645 631.533 402.003 631.176 402.269 630.728C402.547 630.28 402.685 629.789 402.685 629.256C402.685 628.723 402.547 628.232 402.269 627.784C402.003 627.336 401.645 626.979 401.197 626.712C400.749 626.445 400.259 626.312 399.725 626.312C399.181 626.312 398.68 626.445 398.221 626.712C397.773 626.979 397.416 627.336 397.149 627.784C396.883 628.221 396.749 628.712 396.749 629.256C396.749 629.789 396.883 630.28 397.149 630.728C397.427 631.176 397.789 631.533 398.237 631.8C398.685 632.067 399.181 632.2 399.725 632.2Z" fill="#7C7C7C"/>
<circle cx="556" cy="557" r="48" fill="#1B5837"/>
<path d="M532.272 625.688H530.208L529.456 628.824H531.6V629.688H529.248L528.448 633H527.52L528.336 629.688H525.312L524.512 633H523.584L524.4 629.688H522.592V628.824H524.608L525.36 625.688H523.28V624.872H525.568L526.352 621.64H527.28L526.48 624.872H529.504L530.288 621.64H531.216L530.416 624.872H532.272V625.688ZM528.544 628.824L529.296 625.688H526.272L525.52 628.824H528.544ZM539.371 632.008V633H533.947V632.008H536.219V625.16C536.134 625.288 535.99 625.427 535.787 625.576C535.584 625.725 535.35 625.864 535.083 625.992C534.827 626.12 534.571 626.227 534.315 626.312C534.059 626.397 533.824 626.44 533.611 626.44V625.384C533.856 625.384 534.123 625.315 534.411 625.176C534.699 625.037 534.976 624.877 535.243 624.696C535.51 624.515 535.734 624.344 535.915 624.184C536.096 624.024 536.198 623.917 536.219 623.864H537.339V632.008H539.371ZM549.687 630.072C549.687 630.637 549.543 631.144 549.255 631.592C548.967 632.029 548.577 632.376 548.087 632.632C547.607 632.877 547.079 633 546.503 633H541.143V621.64H546.615C547.148 621.64 547.607 621.784 547.991 622.072C548.385 622.349 548.684 622.712 548.887 623.16C549.1 623.597 549.207 624.056 549.207 624.536C549.207 625.101 549.063 625.624 548.775 626.104C548.487 626.584 548.087 626.941 547.575 627.176C548.225 627.368 548.737 627.725 549.111 628.248C549.495 628.771 549.687 629.379 549.687 630.072ZM548.567 629.88C548.567 629.496 548.481 629.144 548.311 628.824C548.14 628.493 547.905 628.227 547.607 628.024C547.319 627.821 546.988 627.72 546.615 627.72H542.263V632.024H546.503C546.887 632.024 547.233 631.923 547.543 631.72C547.852 631.517 548.097 631.256 548.279 630.936C548.471 630.605 548.567 630.253 548.567 629.88ZM542.263 622.616V626.808H546.167C546.54 626.808 546.871 626.712 547.159 626.52C547.447 626.317 547.676 626.056 547.847 625.736C548.017 625.416 548.103 625.075 548.103 624.712C548.103 624.328 548.023 623.981 547.863 623.672C547.703 623.352 547.484 623.096 547.207 622.904C546.929 622.712 546.615 622.616 546.263 622.616H542.263ZM554.567 635.384C553.767 635.384 553.042 635.181 552.391 634.776C551.74 634.381 551.255 633.859 550.935 633.208L551.655 632.664C551.954 633.187 552.359 633.608 552.871 633.928C553.394 634.248 553.964 634.408 554.583 634.408C555.116 634.408 555.591 634.291 556.007 634.056C556.434 633.821 556.77 633.496 557.015 633.08C557.271 632.664 557.399 632.184 557.399 631.64C557.399 631.117 557.276 630.659 557.031 630.264C556.796 629.859 556.471 629.544 556.055 629.32C555.65 629.096 555.191 628.984 554.679 628.984C554.188 628.984 553.719 629.096 553.271 629.32C552.823 629.533 552.46 629.848 552.183 630.264H551.175L552.439 623.864H557.927V624.872H553.255L552.471 628.952C552.748 628.653 553.09 628.424 553.495 628.264C553.9 628.093 554.338 628.008 554.807 628.008C555.5 628.008 556.124 628.163 556.679 628.472C557.244 628.781 557.692 629.208 558.023 629.752C558.354 630.296 558.519 630.92 558.519 631.624C558.519 632.371 558.338 633.027 557.975 633.592C557.623 634.157 557.148 634.595 556.551 634.904C555.954 635.224 555.292 635.384 554.567 635.384ZM567.782 629.848C567.782 630.509 567.595 631.085 567.222 631.576C566.859 632.067 566.374 632.451 565.766 632.728C565.168 632.995 564.512 633.128 563.798 633.128C563.04 633.128 562.368 632.979 561.782 632.68C561.195 632.371 560.731 631.965 560.39 631.464C560.059 630.963 559.894 630.403 559.894 629.784C559.894 629.304 560.006 628.872 560.23 628.488C560.464 628.093 560.752 627.763 561.094 627.496C561.446 627.229 561.803 627.037 562.166 626.92C561.835 626.781 561.526 626.6 561.238 626.376C560.95 626.141 560.72 625.869 560.55 625.56C560.379 625.251 560.294 624.909 560.294 624.536C560.294 624.067 560.395 623.656 560.598 623.304C560.811 622.941 561.088 622.637 561.43 622.392C561.771 622.136 562.15 621.949 562.566 621.832C562.992 621.704 563.419 621.64 563.846 621.64C564.262 621.64 564.678 621.704 565.094 621.832C565.52 621.949 565.904 622.131 566.246 622.376C566.598 622.621 566.875 622.925 567.078 623.288C567.291 623.64 567.398 624.051 567.398 624.52C567.398 624.893 567.307 625.24 567.126 625.56C566.955 625.869 566.726 626.141 566.438 626.376C566.15 626.6 565.835 626.781 565.494 626.92C565.91 627.059 566.288 627.272 566.63 627.56C566.982 627.837 567.259 628.168 567.462 628.552C567.675 628.936 567.782 629.368 567.782 629.848ZM566.678 629.768C566.678 629.384 566.592 629.048 566.422 628.76C566.262 628.461 566.038 628.211 565.75 628.008C565.472 627.805 565.163 627.651 564.822 627.544C564.491 627.437 564.155 627.384 563.814 627.384C563.355 627.384 562.907 627.485 562.47 627.688C562.043 627.88 561.691 628.157 561.414 628.52C561.147 628.872 561.014 629.293 561.014 629.784C561.014 630.157 561.094 630.488 561.254 630.776C561.424 631.064 561.648 631.315 561.926 631.528C562.203 631.731 562.507 631.885 562.838 631.992C563.179 632.099 563.52 632.152 563.862 632.152C564.32 632.152 564.763 632.056 565.19 631.864C565.627 631.661 565.984 631.379 566.262 631.016C566.539 630.653 566.678 630.237 566.678 629.768ZM561.382 624.584C561.382 624.989 561.504 625.341 561.75 625.64C562.006 625.928 562.326 626.147 562.71 626.296C563.094 626.445 563.467 626.52 563.83 626.52C564.214 626.52 564.592 626.445 564.966 626.296C565.35 626.136 565.664 625.912 565.91 625.624C566.166 625.325 566.294 624.968 566.294 624.552C566.294 624.147 566.176 623.8 565.942 623.512C565.707 623.224 565.398 623.005 565.014 622.856C564.64 622.707 564.24 622.632 563.814 622.632C563.408 622.632 563.014 622.712 562.63 622.872C562.256 623.021 561.952 623.245 561.718 623.544C561.494 623.832 561.382 624.179 561.382 624.584ZM574.066 629.224C574.546 629.299 574.957 629.469 575.298 629.736C575.639 630.003 575.906 630.339 576.098 630.744C576.29 631.149 576.386 631.608 576.386 632.12C576.386 632.76 576.231 633.325 575.922 633.816C575.613 634.307 575.181 634.685 574.626 634.952C574.071 635.219 573.426 635.352 572.69 635.352C571.879 635.352 571.17 635.187 570.562 634.856C569.954 634.536 569.495 634.088 569.186 633.512L569.938 632.824C570.173 633.283 570.519 633.651 570.978 633.928C571.437 634.216 572.007 634.36 572.69 634.36C573.479 634.36 574.103 634.163 574.562 633.768C575.031 633.384 575.266 632.829 575.266 632.104C575.266 631.379 575.021 630.803 574.53 630.376C574.05 629.939 573.362 629.72 572.466 629.72H572.066V628.792H572.498C573.319 628.792 573.949 628.6 574.386 628.216C574.823 627.832 575.042 627.341 575.042 626.744C575.042 626.307 574.941 625.944 574.738 625.656C574.535 625.368 574.258 625.149 573.906 625C573.565 624.851 573.17 624.776 572.722 624.776C572.114 624.776 571.575 624.915 571.106 625.192C570.647 625.459 570.301 625.832 570.066 626.312L569.362 625.64C569.543 625.267 569.805 624.941 570.146 624.664C570.487 624.387 570.887 624.173 571.346 624.024C571.805 623.864 572.295 623.784 572.818 623.784C573.479 623.784 574.061 623.907 574.562 624.152C575.063 624.387 575.458 624.717 575.746 625.144C576.034 625.571 576.178 626.072 576.178 626.648C576.178 627.075 576.093 627.469 575.922 627.832C575.751 628.195 575.506 628.499 575.186 628.744C574.877 628.989 574.503 629.149 574.066 629.224ZM583.719 624.68H577.591V623.672H585.447L579.703 635.032H578.455L583.719 624.68Z" fill="#7C7C7C"/>
<path d="M236.397 767.143L236.844 768.037L236.844 768.037L236.397 767.143ZM235.603 767.143L235.156 768.037L235.156 768.037L235.603 767.143ZM246.667 752.333C246.667 756.304 244.562 759.509 242.101 761.899C239.643 764.285 236.927 765.76 235.95 766.248L236.844 768.037C237.908 767.505 240.827 765.923 243.494 763.334C246.157 760.747 248.667 757.058 248.667 752.333H246.667ZM236 741.667C241.891 741.667 246.667 746.442 246.667 752.333H248.667C248.667 745.338 242.996 739.667 236 739.667V741.667ZM225.333 752.333C225.333 746.442 230.109 741.667 236 741.667V739.667C229.004 739.667 223.333 745.338 223.333 752.333H225.333ZM236.05 766.248C235.073 765.76 232.357 764.285 229.899 761.899C227.438 759.509 225.333 756.304 225.333 752.333H223.333C223.333 757.058 225.843 760.747 228.506 763.334C231.173 765.923 234.092 767.505 235.156 768.037L236.05 766.248ZM235.95 766.248C235.957 766.245 235.975 766.238 236 766.238C236.025 766.238 236.043 766.245 236.05 766.248L235.156 768.037C235.693 768.305 236.307 768.305 236.844 768.037L235.95 766.248ZM240 752.333C240 754.542 238.209 756.333 236 756.333V758.333C239.314 758.333 242 755.647 242 752.333H240ZM236 748.333C238.209 748.333 240 750.124 240 752.333H242C242 749.02 239.314 746.333 236 746.333V748.333ZM232 752.333C232 750.124 233.791 748.333 236 748.333V746.333C232.686 746.333 230 749.02 230 752.333H232ZM236 756.333C233.791 756.333 232 754.542 232 752.333H230C230 755.647 232.686 758.333 236 758.333V756.333Z" fill="#1C1C1C"/>
<path fill-rule="evenodd" clip-rule="evenodd" d="M321.786 739.272C320.726 738.639 319.526 738.218 318.247 738.064C317.711 738 317.105 738 316.082 738L316 738L315.918 738C314.895 738 314.289 738 313.753 738.064C309.999 738.515 306.927 741.265 306.065 744.946C305.941 745.471 305.875 746.073 305.762 747.09L305.753 747.172L305.333 750.949C305.196 752.177 305.137 752.691 305.007 753.18C304.928 753.476 304.83 753.767 304.713 754.05C304.52 754.518 304.256 754.963 303.62 756.023L301.96 758.79L301.922 758.852L301.922 758.852C301.552 759.47 301.217 760.027 301.023 760.495C300.82 760.986 300.651 761.657 301.026 762.319C301.401 762.981 302.062 763.181 302.588 763.259C303.089 763.334 303.739 763.333 304.459 763.333H304.459L304.532 763.333H327.468L327.54 763.333H327.541C328.261 763.333 328.911 763.334 329.412 763.259C329.938 763.181 330.599 762.981 330.974 762.319C331.349 761.657 331.18 760.986 330.977 760.495C330.783 760.027 330.448 759.47 330.078 758.852L330.078 758.852L330.04 758.79L328.38 756.023C327.744 754.963 327.48 754.518 327.287 754.05C327.17 753.767 327.072 753.476 326.993 753.18C326.863 752.691 326.804 752.177 326.667 750.949L326.596 750.306C326.4 750.324 326.201 750.333 326 750.333C325.508 750.333 325.028 750.277 324.568 750.171L324.679 751.17L324.689 751.253L324.689 751.253C324.813 752.374 324.887 753.043 325.061 753.694C325.162 754.075 325.288 754.448 325.438 754.813C325.695 755.435 326.041 756.013 326.622 756.98L326.622 756.98L326.665 757.052L328.325 759.819C328.745 760.519 328.999 760.947 329.129 761.262L329.136 761.278L329.119 761.281C328.782 761.331 328.285 761.333 327.468 761.333H304.532C303.715 761.333 303.218 761.331 302.881 761.281L302.864 761.278L302.871 761.262C303.001 760.947 303.255 760.519 303.675 759.819L305.335 757.052L305.378 756.98L305.378 756.98C305.959 756.013 306.305 755.435 306.562 754.813C306.712 754.448 306.838 754.075 306.939 753.694C307.113 753.043 307.187 752.374 307.311 751.253L307.311 751.253L307.321 751.17L307.74 747.393C307.865 746.27 307.919 745.796 308.012 745.402C308.683 742.539 311.072 740.401 313.992 740.05C314.393 740.002 314.871 740 316 740C317.129 740 317.607 740.002 318.008 740.05C318.902 740.157 319.747 740.433 320.507 740.845C320.848 740.254 321.28 739.723 321.786 739.272ZM324.104 741.258C323.528 741.657 323.085 742.232 322.851 742.905C323.381 743.64 323.773 744.484 323.988 745.402C324.062 745.719 324.112 746.087 324.194 746.802C324.714 747.138 325.334 747.333 326 747.333C326.089 747.333 326.177 747.33 326.264 747.323L326.247 747.172L326.238 747.09L326.238 747.09C326.125 746.073 326.059 745.471 325.935 744.946C325.611 743.56 324.973 742.307 324.104 741.258ZM329.197 761.471C329.196 761.471 329.196 761.468 329.196 761.464C329.197 761.469 329.197 761.471 329.197 761.471ZM329.331 761.231C329.33 761.232 329.328 761.233 329.326 761.234C329.331 761.232 329.333 761.231 329.333 761.231C329.333 761.231 329.332 761.231 329.331 761.231ZM302.667 761.231C302.668 761.231 302.67 761.232 302.674 761.234C302.669 761.232 302.667 761.231 302.667 761.231ZM302.803 761.471C302.804 761.471 302.804 761.468 302.804 761.464C302.804 761.467 302.803 761.469 302.803 761.47C302.803 761.471 302.803 761.471 302.803 761.471Z" fill="#1C1C1C"/>
<path d="M311.17 763.441C311.455 765.036 312.083 766.445 312.956 767.45C313.829 768.455 314.899 769 316 769C317.101 769 318.171 768.455 319.044 767.45C319.917 766.445 320.545 765.036 320.83 763.441" stroke="#1C1C1C" stroke-width="2" stroke-linecap="round"/>
<path d="M326 747.833C328.117 747.833 329.833 746.117 329.833 744C329.833 741.883 328.117 740.167 326 740.167C323.883 740.167 322.167 741.883 322.167 744C322.167 746.117 323.883 747.833 326 747.833Z" fill="#1C1C1C" stroke="#1C1C1C"/>
<circle cx="394.333" cy="752.333" r="11.6667" stroke="#1C1C1C" stroke-width="2"/>
<path d="M409.333 767.333L404.333 762.333" stroke="#1C1C1C" stroke-width="2" stroke-linecap="round"/>
<path d="M474.333 747.333L489.333 747.333" stroke="#1C1C1C" stroke-width="2" stroke-linecap="round"/>
<path d="M462.667 760.667L479.333 760.667" stroke="#1C1C1C" stroke-width="2" stroke-linecap="round"/>
<ellipse cx="467.667" cy="747.333" rx="5" ry="5" transform="rotate(90 467.667 747.333)" stroke="#1C1C1C" stroke-width="2" stroke-linecap="round"/>
<ellipse cx="484.333" cy="760.667" rx="5" ry="5" transform="rotate(90 484.333 760.667)" stroke="#1C1C1C" stroke-width="2" stroke-linecap="round"/>
<circle cx="238" cy="874" r="14.3333" stroke="#1C1C1C" stroke-width="2"/>
<path d="M245.5 874H238.25C238.112 874 238 873.888 238 873.75V868.167" stroke="#1C1C1C" stroke-width="2" stroke-linecap="round"/>
<rect x="303" y="864" width="30" height="21.6667" rx="2" stroke="#1C1C1C" stroke-width="2"/>
<path d="M309.667 879H309.683" stroke="#1C1C1C" stroke-width="2" stroke-linecap="round"/>
<path d="M304.667 872.333H333" stroke="#1C1C1C" stroke-width="2" stroke-linecap="round"/>
<path d="M394.906 865.046C396.217 861.778 396.873 860.143 398 860.143C399.127 860.143 399.783 861.778 401.094 865.046L401.155 865.198C401.895 867.045 402.266 867.968 403.021 868.529C403.775 869.09 404.766 869.179 406.748 869.356L407.106 869.388C410.349 869.679 411.97 869.824 412.317 870.856C412.664 871.887 411.46 872.983 409.052 875.174L408.248 875.905C407.029 877.015 406.419 877.569 406.135 878.296C406.082 878.432 406.038 878.571 406.003 878.712C405.816 879.47 405.995 880.274 406.352 881.883L406.463 882.384C407.119 885.341 407.447 886.82 406.874 887.458C406.66 887.696 406.382 887.868 406.073 887.952C405.246 888.178 404.072 887.221 401.724 885.307C400.182 884.051 399.411 883.423 398.526 883.281C398.177 883.226 397.823 883.226 397.474 883.281C396.589 883.423 395.818 884.051 394.276 885.307C391.928 887.221 390.754 888.178 389.927 887.952C389.618 887.868 389.34 887.696 389.126 887.458C388.553 886.82 388.881 885.341 389.537 882.384L389.648 881.883C390.005 880.274 390.184 879.47 389.997 878.712C389.962 878.571 389.918 878.432 389.865 878.296C389.581 877.569 388.971 877.015 387.752 875.905L386.948 875.174C384.54 872.983 383.336 871.887 383.683 870.856C384.03 869.824 385.651 869.679 388.894 869.388L389.252 869.356C391.234 869.179 392.225 869.09 392.98 868.529C393.734 867.968 394.105 867.045 394.845 865.198L394.906 865.046Z" stroke="#1C1C1C" stroke-width="2"/>
<path d="M474.667 879L474.667 874" stroke="#1C1C1C" stroke-width="2" stroke-linecap="round"/>
<path d="M471.333 862.333L468 869M484.667 862.333L488 869" stroke="#1C1C1C" stroke-width="2" stroke-linecap="round"/>
<path d="M481.333 879L481.333 874" stroke="#1C1C1C" stroke-width="2" stroke-linecap="round"/>
<path d="M463 869H463.357C464.791 869 465.508 869 466.039 869.395C466.571 869.791 466.777 870.477 467.189 871.851L470.478 882.816C470.89 884.189 471.096 884.876 471.628 885.271C472.159 885.667 472.876 885.667 474.309 885.667H481.691C483.124 885.667 483.841 885.667 484.372 885.271C484.904 884.876 485.11 884.189 485.522 882.816L488.811 871.851C489.223 870.477 489.429 869.791 489.961 869.395C490.492 869 491.209 869 492.643 869H493" stroke="#1C1C1C" stroke-width="2" stroke-linecap="round"/>
<path d="M463 869L493 869" stroke="#1C1C1C" stroke-width="2" stroke-linecap="round"/>
<path d="M223.333 815.266C223.333 813.003 223.333 811.872 223.791 810.877C224.248 809.883 225.107 809.146 226.825 807.673L228.492 806.245C231.598 803.583 233.15 802.252 235 802.252C236.85 802.252 238.402 803.583 241.508 806.245L243.175 807.673C244.893 809.146 245.752 809.883 246.209 810.877C246.667 811.872 246.667 813.003 246.667 815.266V822.333C246.667 825.476 246.667 827.047 245.69 828.024C244.714 829 243.143 829 240 829H230C226.857 829 225.286 829 224.31 828.024C223.333 827.047 223.333 825.476 223.333 822.333V815.266Z" stroke="#1C1C1C" stroke-width="2"/>
<path d="M239.167 829V820C239.167 819.448 238.719 819 238.167 819H231.833C231.281 819 230.833 819.448 230.833 820V829" stroke="#1C1C1C" stroke-width="2" stroke-linecap="round" stroke-linejoin="round"/>
<circle cx="315" cy="805.667" r="6.66667" stroke="#1C1C1C" stroke-width="2" stroke-linecap="round"/>
<path d="M304.782 821.569C305.75 818.866 308.438 817.333 311.309 817.333H318.691C321.562 817.333 324.25 818.866 325.218 821.569C325.878 823.413 326.492 825.68 326.635 828.001C326.669 828.552 326.219 829 325.667 829H304.333C303.781 829 303.331 828.552 303.365 828.001C303.508 825.68 304.122 823.413 304.782 821.569Z" stroke="#1C1C1C" stroke-width="2" stroke-linecap="round"/>
<path d="M381.667 800.667H385.105C385.855 800.667 386.23 800.667 386.501 800.878C386.773 801.09 386.864 801.454 387.045 802.182L387.576 804.303C387.94 805.759 388.122 806.486 388.664 806.91C389.207 807.333 389.957 807.333 391.456 807.333H391.667" stroke="#1C1C1C" stroke-width="2" stroke-linecap="round"/>
<path d="M405 822.333H387.585C386.498 822.333 385.955 822.333 385.659 822.018C385.599 821.955 385.549 821.884 385.507 821.808C385.302 821.428 385.474 820.912 385.817 819.881V819.881C386.196 818.745 386.386 818.177 386.804 817.817C386.891 817.742 386.984 817.675 387.082 817.617C387.556 817.333 388.155 817.333 389.352 817.333H398.333" stroke="#1C1C1C" stroke-width="2" stroke-linecap="round" stroke-linejoin="round"/>
<path d="M400.861 817.333H391.722C390.104 817.333 389.294 817.333 388.735 816.859C388.175 816.385 388.042 815.587 387.776 813.991L387.249 810.827C386.979 809.205 386.843 808.394 387.293 807.864C387.742 807.333 388.564 807.333 390.208 807.333H405.097C406.548 807.333 407.273 807.333 407.566 807.808C407.859 808.282 407.535 808.93 406.886 810.228L404.439 815.122C403.901 816.198 403.632 816.736 403.149 817.035C402.665 817.333 402.064 817.333 400.861 817.333Z" stroke="#1C1C1C" stroke-width="2" stroke-linecap="round"/>
<circle cx="403.333" cy="827.333" r="1.66667" fill="#1C1C1C"/>
<ellipse cx="390" cy="827.333" rx="1.66667" ry="1.66667" fill="#1C1C1C"/>
<path d="M462.418 817.18L474.315 828.357C474.64 828.662 474.802 828.814 475 828.814C475.198 828.814 475.36 828.662 475.685 828.357L487.582 817.18C490.843 814.118 491.238 809.078 488.496 805.543L487.981 804.879C484.7 800.651 478.116 801.36 475.811 806.189C475.486 806.872 474.514 806.872 474.189 806.189C471.884 801.36 465.3 800.651 462.019 804.879L461.504 805.543C458.762 809.078 459.157 814.118 462.418 817.18Z" stroke="#1C1C1C" stroke-width="2"/>
</svg>
